<svg width="20" height="20" viewBox="0 0 20 20" fill="none" xmlns="http://www.w3.org/2000/svg">
<path d="M8.44141 7.50056V13.1197C8.4479 13.5306 8.61568 13.9225 8.90855 14.2107C9.20142 14.499 9.59589 14.6606 10.0068 14.6606C10.4178 14.6606 10.8123 14.499 11.1051 14.2107C11.398 13.9225 11.5658 13.5306 11.5723 13.1197L11.5773 5.75446C11.5816 5.40326 11.5161 5.05471 11.3847 4.72901C11.2532 4.40331 11.0584 4.10694 10.8116 3.85709C10.5647 3.60723 10.2708 3.40886 9.94667 3.27347C9.62259 3.13808 9.27486 3.06836 8.92363 3.06836C8.57241 3.06836 8.22468 3.13808 7.90059 3.27347C7.57651 3.40886 7.28253 3.60723 7.03569 3.85709C6.78885 4.10694 6.59405 4.40331 6.4626 4.72901C6.33115 5.05471 6.26566 5.40326 6.26992 5.75446V13.1693C6.26277 13.6637 6.35397 14.1547 6.53823 14.6135C6.7225 15.0724 6.99614 15.4901 7.34326 15.8423C7.69037 16.1944 8.10403 16.4741 8.56019 16.665C9.01635 16.8559 9.5059 16.9542 10.0004 16.9542C10.4949 16.9542 10.9844 16.8559 11.4406 16.665C11.8967 16.4741 12.3104 16.1944 12.6575 15.8423C13.0046 15.4901 13.2783 15.0724 13.4625 14.6135C13.6468 14.1547 13.738 13.6637 13.7309 13.1693V6.2404" stroke="#7D7D7D" stroke-miterlimit="10" stroke-linecap="round"/>
</svg>
