<svg width="20" height="20" viewBox="0 0 20 20" fill="none" xmlns="http://www.w3.org/2000/svg">
<path d="M1.66797 7.49935C1.66797 5.92768 1.66797 5.14268 2.1563 4.65435C2.64464 4.16602 3.42964 4.16602 5.0013 4.16602H15.0013C16.573 4.16602 17.358 4.16602 17.8463 4.65435C18.3346 5.14268 18.3346 5.92768 18.3346 7.49935C18.3346 7.89185 18.3346 8.08852 18.213 8.21102C18.0905 8.33268 17.893 8.33268 17.5013 8.33268H2.5013C2.1088 8.33268 1.91214 8.33268 1.78964 8.21102C1.66797 8.08852 1.66797 7.89102 1.66797 7.49935Z" fill="url(#paint0_linear_2135_28083)"/>
<path fill-rule="evenodd" clip-rule="evenodd" d="M1.66797 15C1.66797 16.5717 1.66797 17.3567 2.1563 17.845C2.64464 18.3333 3.42964 18.3333 5.0013 18.3333H15.0013C16.573 18.3333 17.358 18.3333 17.8463 17.845C18.3346 17.3567 18.3346 16.5717 18.3346 15V10.8333C18.3346 10.4408 18.3346 10.2442 18.213 10.1217C18.0905 10 17.893 10 17.5013 10H2.5013C2.1088 10 1.91214 10 1.78964 10.1217C1.66797 10.2442 1.66797 10.4417 1.66797 10.8333V15ZM5.83464 12.5C5.83464 12.1075 5.83464 11.9108 5.9563 11.7883C6.0788 11.6667 6.2763 11.6667 6.66797 11.6667H8.33464C8.72714 11.6667 8.9238 11.6667 9.0463 11.7883C9.16797 11.9108 9.16797 12.1075 9.16797 12.5C9.16797 12.8925 9.16797 13.0892 9.0463 13.2117C8.9238 13.3333 8.7263 13.3333 8.33464 13.3333H6.66797C6.27547 13.3333 6.0788 13.3333 5.9563 13.2117C5.83464 13.0892 5.83464 12.8917 5.83464 12.5ZM5.9563 15.1217C5.83464 15.2442 5.83464 15.4417 5.83464 15.8333C5.83464 16.225 5.83464 16.4225 5.9563 16.545C6.0788 16.6667 6.2763 16.6667 6.66797 16.6667H8.33464C8.72714 16.6667 8.9238 16.6667 9.0463 16.545C9.16797 16.4225 9.16797 16.225 9.16797 15.8333C9.16797 15.4417 9.16797 15.2442 9.0463 15.1217C8.9238 15 8.7263 15 8.33464 15H6.66797C6.27547 15 6.0788 15 5.9563 15.1217ZM10.8346 12.5C10.8346 12.1075 10.8346 11.9108 10.9563 11.7883C11.0788 11.6667 11.2763 11.6667 11.668 11.6667H13.3346C13.7271 11.6667 13.9238 11.6667 14.0463 11.7883C14.168 11.9108 14.168 12.1075 14.168 12.5C14.168 12.8925 14.168 13.0892 14.0463 13.2117C13.9238 13.3333 13.7263 13.3333 13.3346 13.3333H11.668C11.2755 13.3333 11.0788 13.3333 10.9563 13.2117C10.8346 13.0892 10.8346 12.8917 10.8346 12.5ZM10.9563 15.1217C10.8346 15.2442 10.8346 15.4417 10.8346 15.8333C10.8346 16.225 10.8346 16.4225 10.9563 16.545C11.0788 16.6667 11.2755 16.6667 11.668 16.6667H13.3346C13.7271 16.6667 13.9238 16.6667 14.0463 16.545C14.168 16.4225 14.168 16.225 14.168 15.8333C14.168 15.4417 14.168 15.2442 14.0463 15.1217C13.9238 15 13.7263 15 13.3346 15H11.668C11.2755 15 11.0788 15 10.9563 15.1217Z" fill="url(#paint1_linear_2135_28083)"/>
<path d="M5.83594 2.5V5M14.1693 2.5V5" stroke="url(#paint2_linear_2135_28083)" stroke-width="2" stroke-linecap="round"/>
<defs>
<linearGradient id="paint0_linear_2135_28083" x1="9.01816" y1="2.74058" x2="9.47404" y2="11.8646" gradientUnits="userSpaceOnUse">
<stop stop-color="#FF9B63"/>
<stop offset="1" stop-color="#FF621F"/>
</linearGradient>
<linearGradient id="paint1_linear_2135_28083" x1="9.01816" y1="7.14912" x2="10.8281" y2="25.2618" gradientUnits="userSpaceOnUse">
<stop stop-color="#FF9B63"/>
<stop offset="1" stop-color="#FF621F"/>
</linearGradient>
<linearGradient id="paint2_linear_2135_28083" x1="9.51103" y1="1.64474" x2="9.8389" y2="7.11315" gradientUnits="userSpaceOnUse">
<stop stop-color="#FF9B63"/>
<stop offset="1" stop-color="#FF621F"/>
</linearGradient>
</defs>
</svg>
