<svg width="20" height="21" viewBox="0 0 20 21" fill="none" xmlns="http://www.w3.org/2000/svg">
<path d="M11.1665 8.27561H1.97082C1.64297 8.27561 1.37109 8.00374 1.37109 7.67589C1.37109 7.34805 1.64297 7.07617 1.97082 7.07617H11.1665C11.4944 7.07617 11.7663 7.34805 11.7663 7.67589C11.7663 8.00374 11.4944 8.27561 11.1665 8.27561Z" fill="#24252B"/>
<path d="M6.76734 14.6721H5.16808C4.84023 14.6721 4.56836 14.4002 4.56836 14.0724C4.56836 13.7445 4.84023 13.4727 5.16808 13.4727H6.76734C7.09519 13.4727 7.36706 13.7445 7.36706 14.0724C7.36706 14.4002 7.09519 14.6721 6.76734 14.6721Z" fill="#24252B"/>
<path d="M11.9662 14.6721H8.76769C8.43984 14.6721 8.16797 14.4002 8.16797 14.0724C8.16797 13.7445 8.43984 13.4727 8.76769 13.4727H11.9662C12.2941 13.4727 12.5659 13.7445 12.5659 14.0724C12.5659 14.4002 12.2941 14.6721 11.9662 14.6721Z" fill="#24252B"/>
<path d="M14.413 17.8713H5.52116C2.33864 17.8713 1.37109 16.9117 1.37109 13.7612V7.18822C1.37109 4.03768 2.33864 3.07812 5.52116 3.07812H11.1665C11.4944 3.07812 11.7663 3.35 11.7663 3.67785C11.7663 4.00569 11.4944 4.27757 11.1665 4.27757H5.52116C3.01033 4.27757 2.57054 4.70937 2.57054 7.18822V13.7532C2.57054 16.232 3.01033 16.6638 5.52116 16.6638H14.405C16.9159 16.6638 17.3557 16.232 17.3557 13.7532V10.4907C17.3557 10.1628 17.6275 9.89096 17.9554 9.89096C18.2832 9.89096 18.5551 10.1628 18.5551 10.4907V13.7532C18.5631 16.9117 17.5956 17.8713 14.413 17.8713Z" fill="#24252B"/>
<path d="M17.9625 6.47679H13.5646C13.2367 6.47679 12.9648 6.20491 12.9648 5.87707C12.9648 5.54922 13.2367 5.27734 13.5646 5.27734H17.9625C18.2904 5.27734 18.5622 5.54922 18.5622 5.87707C18.5622 6.20491 18.2904 6.47679 17.9625 6.47679Z" fill="#24252B"/>
<path d="M15.7638 8.67552C15.4359 8.67552 15.1641 8.40365 15.1641 8.0758V3.67785C15.1641 3.35 15.4359 3.07812 15.7638 3.07812C16.0916 3.07812 16.3635 3.35 16.3635 3.67785V8.0758C16.3635 8.40365 16.0916 8.67552 15.7638 8.67552Z" fill="#24252B"/>
</svg>
