<svg width="15" height="15" viewBox="0 0 15 15" fill="none" xmlns="http://www.w3.org/2000/svg">
<path d="M13.1175 4.58754C13.1175 4.97762 12.7983 5.29677 12.4082 5.29677H2.00611C1.61603 5.29677 1.29688 4.97762 1.29688 4.58754V4.58163C1.29688 3.22817 2.39028 2.13477 3.74374 2.13477H10.6647C12.0182 2.13477 13.1175 3.23408 13.1175 4.58754Z" fill="#FF7A2C"/>
<path d="M1.29688 6.89283V9.85389C1.29688 11.2073 2.39028 12.3008 3.74374 12.3008H10.6647C12.0182 12.3008 13.1175 11.2014 13.1175 9.84798V6.89283C13.1175 6.50275 12.7983 6.18359 12.4082 6.18359H2.00611C1.61603 6.18359 1.29688 6.50275 1.29688 6.89283ZM4.84305 10.3208H3.66099C3.41867 10.3208 3.21772 10.1199 3.21772 9.87753C3.21772 9.63521 3.41867 9.43426 3.66099 9.43426H4.84305C5.08538 9.43426 5.28633 9.63521 5.28633 9.87753C5.28633 10.1199 5.08538 10.3208 4.84305 10.3208ZM8.68475 10.3208H6.32063C6.07831 10.3208 5.87736 10.1199 5.87736 9.87753C5.87736 9.63521 6.07831 9.43426 6.32063 9.43426H8.68475C8.92707 9.43426 9.12802 9.63521 9.12802 9.87753C9.12802 10.1199 8.92707 10.3208 8.68475 10.3208Z" fill="#FF7A2C"/>
</svg>
