<svg width="15" height="15" viewBox="0 0 15 15" fill="none" xmlns="http://www.w3.org/2000/svg">
<path d="M7.20717 1.5293C3.9506 1.5293 1.29688 4.18302 1.29688 7.43959C1.29688 10.6962 3.9506 13.3499 7.20717 13.3499C10.4637 13.3499 13.1175 10.6962 13.1175 7.43959C13.1175 4.18302 10.4637 1.5293 7.20717 1.5293ZM6.7639 5.07548C6.7639 4.83315 6.96485 4.6322 7.20717 4.6322C7.44949 4.6322 7.65044 4.83315 7.65044 5.07548V8.03062C7.65044 8.27295 7.44949 8.4739 7.20717 8.4739C6.96485 8.4739 6.7639 8.27295 6.7639 8.03062V5.07548ZM7.75092 10.0283C7.72137 10.1051 7.68 10.1642 7.6268 10.2233C7.5677 10.2765 7.50269 10.3179 7.43176 10.3475C7.36084 10.377 7.28401 10.3947 7.20717 10.3947C7.13034 10.3947 7.0535 10.377 6.98258 10.3475C6.91166 10.3179 6.84664 10.2765 6.78754 10.2233C6.73435 10.1642 6.69298 10.1051 6.66342 10.0283C6.63387 9.95738 6.61614 9.88055 6.61614 9.80371C6.61614 9.72688 6.63387 9.65005 6.66342 9.57912C6.69298 9.5082 6.73435 9.44319 6.78754 9.38408C6.84664 9.33089 6.91166 9.28952 6.98258 9.25997C7.12443 9.20086 7.28992 9.20086 7.43176 9.25997C7.50269 9.28952 7.5677 9.33089 7.6268 9.38408C7.68 9.44319 7.72137 9.5082 7.75092 9.57912C7.78047 9.65005 7.7982 9.72688 7.7982 9.80371C7.7982 9.88055 7.78047 9.95738 7.75092 10.0283Z" fill="#CBD0DC"/>
</svg>
