<svg width="24" height="24" viewBox="0 0 24 24" fill="none" xmlns="http://www.w3.org/2000/svg">
<path d="M21.8733 9.13702H18.5984V3.89419C18.5984 2.60958 17.5532 1.56445 16.2686 1.56445H2.70338C1.41947 1.56445 0.375 2.60953 0.375 3.89419V14.7913C0.375 16.0752 1.41947 17.1196 2.70338 17.1196H4.89938V20.2298C4.89938 20.4579 5.03709 20.6634 5.24803 20.7501C5.31722 20.7785 5.38978 20.7923 5.46178 20.7923C5.6092 20.7923 5.75395 20.7344 5.86177 20.6255L9.3308 17.1196H10.9997V18.2154C10.9997 19.1806 11.7856 19.9658 12.7515 19.9658H17.34L19.6185 22.2691C19.7263 22.378 19.8711 22.436 20.0185 22.436C20.0905 22.436 20.163 22.4222 20.2323 22.3937C20.4432 22.307 20.5809 22.1016 20.5809 21.8735V19.9658H21.8734C22.8393 19.9658 23.6251 19.1806 23.6251 18.2154V10.8874C23.6251 9.92222 22.8393 9.13697 21.8734 9.13697L21.8733 9.13702ZM9.096 15.9947C8.94581 15.9947 8.80181 16.0548 8.69616 16.1616L6.02438 18.8617V16.5572C6.02438 16.2466 5.77252 15.9947 5.46188 15.9947H2.70338C2.03986 15.9947 1.5 15.4549 1.5 14.7914V3.89423C1.5 3.22997 2.03986 2.6895 2.70338 2.6895H16.2686C16.9329 2.6895 17.4734 3.22992 17.4734 3.89423V14.7913C17.4734 15.4549 16.9329 15.9947 16.2686 15.9947H9.096ZM22.5 18.2155C22.5 18.5603 22.2188 18.8409 21.8733 18.8409H20.0183C19.7077 18.8409 19.4558 19.0928 19.4558 19.4034V20.5051L17.9746 19.0078C17.869 18.901 17.725 18.8409 17.5748 18.8409H12.7515C12.4058 18.8409 12.1247 18.5603 12.1247 18.2155V17.1197H16.2686C17.5532 17.1197 18.5984 16.0752 18.5984 14.7913V10.262H21.8733C22.2188 10.262 22.5 10.5426 22.5 10.8874V18.2155ZM9.48666 7.06819C8.2328 7.06819 7.2127 8.08828 7.2127 9.34214C7.2127 10.596 8.2328 11.616 9.48666 11.616C10.7405 11.616 11.7606 10.596 11.7606 9.34214C11.7606 8.08833 10.7405 7.06819 9.48666 7.06819ZM9.48666 10.491C8.8531 10.491 8.3377 9.97566 8.3377 9.34214C8.3377 8.70862 8.8531 8.19319 9.48666 8.19319C10.1202 8.19319 10.6356 8.70862 10.6356 9.34214C10.6356 9.97566 10.1202 10.491 9.48666 10.491ZM14.2506 8.24934L13.543 7.923L13.3592 7.47905L13.6288 6.74592C13.7046 6.53995 13.6536 6.30872 13.4983 6.1537L12.6745 5.33123C12.5193 5.17636 12.2885 5.12573 12.0826 5.20144L11.351 5.47092L10.907 5.28708L10.5793 4.57786C10.4873 4.37878 10.288 4.25128 10.0687 4.25128H8.90466C8.68533 4.25128 8.48597 4.37878 8.394 4.57786L8.06639 5.28703L7.62234 5.47088L6.89072 5.20139C6.68498 5.12564 6.45403 5.17627 6.29888 5.33114L5.475 6.15366C5.31975 6.30872 5.26875 6.53991 5.3445 6.74592L5.61417 7.47905L5.43033 7.923L4.7227 8.24934C4.52339 8.34127 4.39575 8.54067 4.39575 8.76014V9.92545C4.39575 10.1449 4.52339 10.3443 4.7227 10.4362L5.43033 10.7626L5.61417 11.2065L5.3445 11.9397C5.26875 12.1456 5.31975 12.3769 5.475 12.5319L6.29888 13.3544C6.45403 13.5093 6.68494 13.5599 6.89072 13.4842L7.62234 13.2147L8.06639 13.3985L8.394 14.1077C8.48597 14.3068 8.68533 14.4343 8.90466 14.4343H10.0687C10.288 14.4343 10.4873 14.3068 10.5793 14.1077L10.907 13.3985L11.351 13.2147L12.0826 13.4842C12.2885 13.56 12.5194 13.5092 12.6745 13.3544L13.4983 12.5319C13.6536 12.3768 13.7046 12.1456 13.6288 11.9397L13.3592 11.2065L13.543 10.7626L14.2506 10.4362C14.4499 10.3443 14.5776 10.1449 14.5776 9.92545V8.76014C14.5776 8.54067 14.4499 8.34127 14.2506 8.24934ZM13.4526 9.56545L12.872 9.83325C12.7434 9.89255 12.642 9.99806 12.5878 10.1288L12.2357 10.9792C12.1816 11.1098 12.1787 11.256 12.2274 11.3886L12.4487 11.9901L12.134 12.3042L11.5334 12.083C11.4007 12.0341 11.2545 12.037 11.1238 12.0911L10.2734 12.4433C10.1427 12.4973 10.0373 12.5986 9.97791 12.727L9.70889 13.3093H9.26442L8.99545 12.727C8.93616 12.5986 8.83064 12.4973 8.7 12.4432L7.84955 12.0911C7.71877 12.037 7.57261 12.0341 7.43995 12.0829L6.8393 12.3042L6.52467 11.9901L6.74592 11.3885C6.79467 11.2559 6.79177 11.1097 6.73767 10.9792L6.3855 10.1287C6.33136 9.99797 6.22992 9.89245 6.10134 9.83316L5.52075 9.56536V9.12005L6.10134 8.8523C6.22988 8.793 6.33131 8.68744 6.3855 8.5567L6.73767 7.7063C6.79172 7.5757 6.79467 7.42955 6.74592 7.29694L6.52467 6.69539L6.8393 6.38123L7.43995 6.60248C7.57266 6.65133 7.71886 6.64842 7.84955 6.59437L8.7 6.24225C8.83064 6.18816 8.93616 6.08681 8.99545 5.95842L9.26442 5.37614H9.70889L9.97791 5.95842C10.0373 6.08681 10.1427 6.18811 10.2734 6.24225L11.1238 6.59437C11.2545 6.64847 11.4006 6.65137 11.5334 6.60248L12.134 6.38123L12.4487 6.69539L12.2274 7.29694C12.1787 7.42959 12.1816 7.5757 12.2357 7.70625L12.5878 8.55666C12.642 8.68744 12.7434 8.793 12.872 8.8523L13.4526 9.12005V9.56536V9.56545Z" fill="url(#paint0_linear_2135_27791)"/>
<defs>
<linearGradient id="paint0_linear_2135_27791" x1="10.6286" y1="-5.57582" x2="18.5925" y2="38.8132" gradientUnits="userSpaceOnUse">
<stop stop-color="#FF9B63"/>
<stop offset="1" stop-color="#FF621F"/>
</linearGradient>
</defs>
</svg>
