<svg width="24" height="24" viewBox="0 0 24 24" fill="none" xmlns="http://www.w3.org/2000/svg">
<path d="M6.99984 20H3.99984C3.8685 20 3.73844 19.9741 3.61711 19.9238C3.49577 19.8736 3.38553 19.7999 3.29268 19.707C3.19983 19.6141 3.12619 19.5038 3.07597 19.3824C3.02575 19.2611 2.99994 19.131 3 18.9997V8M11.0002 11.9998H17.0002M11.0002 8H17.0002" stroke="#6F6F6F" stroke-width="1.25" stroke-linecap="round" stroke-linejoin="round"/>
<path d="M20.0003 4H8.00032C7.86894 3.99994 7.73883 4.02577 7.61744 4.07602C7.49605 4.12626 7.38575 4.19995 7.29285 4.29285C7.19995 4.38575 7.12626 4.49605 7.07602 4.61744C7.02577 4.73883 6.99994 4.86894 7 5.00032V15.0002C7 15.1315 7.02588 15.2616 7.07615 15.3829C7.12643 15.5042 7.20012 15.6145 7.29302 15.7073C7.38591 15.8002 7.49619 15.8738 7.61755 15.924C7.73891 15.9742 7.86898 16.0001 8.00032 16H11.0003V19L16 16H20.0003C20.2655 16 20.5198 15.8947 20.7073 15.7072C20.8948 15.5196 21.0002 15.2653 21.0002 15.0002V5.00032C21.0002 4.86898 20.9744 4.73891 20.9242 4.61755C20.874 4.49619 20.8003 4.38591 20.7075 4.29302C20.6146 4.20012 20.5044 4.12643 20.3831 4.07615C20.2617 4.02588 20.1317 4 20.0003 4Z" stroke="#6F6F6F" stroke-width="1.25" stroke-linecap="round" stroke-linejoin="round"/>
</svg>
