<svg width="20" height="20" viewBox="0 0 20 20" fill="none" xmlns="http://www.w3.org/2000/svg">
<g clip-path="url(#clip0_27_5384)">
<path d="M19.9862 9.99066C20.0194 10.1444 19.995 10.3119 19.9037 10.4557C19.7475 10.7032 16 16.5244 10.0006 16.5244C8.49999 16.5244 7.14999 16.1763 5.96499 15.6482L6.93124 14.6813C7.86124 15.0438 8.88624 15.2744 10.0006 15.2744C14.7325 15.2744 18.02 10.9744 18.7119 9.98754C18.3237 9.42004 17.0831 7.74879 15.1725 6.44004L16.0844 5.52754C18.475 7.22691 19.8175 9.38504 19.9087 9.53316C19.9956 9.67629 20.0187 9.83941 19.9862 9.99066ZM16.4019 3.43129C16.6462 3.18691 16.6462 2.79191 16.4019 2.54754C16.1575 2.30316 15.7625 2.30316 15.5181 2.54754L13.8119 4.25316C12.6812 3.78066 11.4069 3.47566 9.99999 3.47566C4.00062 3.47566 0.253118 9.29629 0.0968682 9.54441C0.0056182 9.68816 -0.0193818 9.85566 0.0143682 10.0094C-0.0181318 10.1607 0.0049932 10.3238 0.0918682 10.4663C0.180618 10.6107 1.45562 12.6613 3.72937 14.3363L2.29687 15.7688C2.05249 16.0132 2.05249 16.4082 2.29687 16.6525C2.41874 16.7744 2.57874 16.8357 2.73874 16.8357C2.89874 16.8357 3.05874 16.7744 3.18062 16.6525L16.4019 3.43129ZM7.68687 10.3782C7.66249 10.2438 7.64999 10.1044 7.64999 9.96316C7.64999 8.66754 8.70437 7.61316 9.99999 7.61316C10.1419 7.61316 10.2806 7.62629 10.4156 7.65004L7.68687 10.3782ZM1.28874 10.0125C1.98062 9.02504 5.26812 4.72566 9.99999 4.72566C11.0212 4.72566 11.97 4.91691 12.8381 5.22816L11.4131 6.65254C10.9794 6.46691 10.5019 6.36379 9.99999 6.36379C8.01499 6.36379 6.39999 7.97879 6.39999 9.96379C6.39999 10.465 6.50312 10.9425 6.68874 11.3769L4.63562 13.43C2.83312 12.1419 1.66437 10.56 1.28874 10.0125ZM12.2594 9.35254L13.2294 8.38316C13.4637 8.86129 13.6 9.39566 13.6 9.96316C13.6 11.9482 11.985 13.5632 9.99999 13.5632C9.43249 13.5632 8.89749 13.4275 8.41999 13.1925L9.38937 12.2225C9.58499 12.2757 9.78749 12.3132 9.99999 12.3132C11.2956 12.3132 12.35 11.2588 12.35 9.96316C12.35 9.75129 12.3125 9.54816 12.2594 9.35254Z" fill="#9A9A9A"/>
</g>
<defs>
<clipPath id="clip0_27_5384">
<rect width="20" height="20" fill="white"/>
</clipPath>
</defs>
</svg>
