<svg width="15" height="15" viewBox="0 0 15 15" fill="none" xmlns="http://www.w3.org/2000/svg">
<path d="M10.5353 2.45024V1.52823C10.5353 1.28591 10.3344 1.08496 10.0921 1.08496C9.84975 1.08496 9.6488 1.28591 9.6488 1.52823V2.41478H5.80711V1.52823C5.80711 1.28591 5.60616 1.08496 5.36384 1.08496C5.12152 1.08496 4.92057 1.28591 4.92057 1.52823V2.45024C3.32478 2.598 2.55054 3.54955 2.43233 4.96212C2.42051 5.13351 2.56236 5.27536 2.72785 5.27536H12.7281C12.8995 5.27536 13.0413 5.1276 13.0236 4.96212C12.9054 3.54955 12.1311 2.598 10.5353 2.45024Z" fill="#CBD0DC"/>
<path d="M12.4557 6.16211H2.99923C2.67417 6.16211 2.4082 6.42807 2.4082 6.75314V10.3939C2.4082 12.167 3.29475 13.349 5.36335 13.349H10.0916C12.1602 13.349 13.0467 12.167 13.0467 10.3939V6.75314C13.0467 6.42807 12.7808 6.16211 12.4557 6.16211ZM6.0785 11.109C6.04895 11.1327 6.0194 11.1622 5.98984 11.18C5.95438 11.2036 5.91892 11.2213 5.88346 11.2331C5.848 11.2509 5.81253 11.2627 5.77707 11.2686C5.7357 11.2745 5.70024 11.2804 5.65887 11.2804C5.58203 11.2804 5.5052 11.2627 5.43428 11.2331C5.35744 11.2036 5.29834 11.1622 5.23924 11.109C5.13285 10.9967 5.06784 10.8431 5.06784 10.6894C5.06784 10.5357 5.13285 10.3821 5.23924 10.2698C5.29834 10.2166 5.35744 10.1752 5.43428 10.1456C5.54066 10.0984 5.65887 10.0865 5.77707 10.1102C5.81253 10.1161 5.848 10.1279 5.88346 10.1456C5.91892 10.1575 5.95438 10.1752 5.98984 10.1988C6.0194 10.2225 6.04895 10.2461 6.0785 10.2698C6.18488 10.3821 6.2499 10.5357 6.2499 10.6894C6.2499 10.8431 6.18488 10.9967 6.0785 11.109ZM6.0785 9.04042C5.9662 9.14681 5.81253 9.21182 5.65887 9.21182C5.5052 9.21182 5.35153 9.14681 5.23924 9.04042C5.13285 8.92813 5.06784 8.77446 5.06784 8.62079C5.06784 8.46713 5.13285 8.31346 5.23924 8.20116C5.40472 8.03567 5.66478 7.98248 5.88346 8.07705C5.96029 8.1066 6.02531 8.14797 6.0785 8.20116C6.18488 8.31346 6.2499 8.46713 6.2499 8.62079C6.2499 8.77446 6.18488 8.92813 6.0785 9.04042ZM8.1471 11.109C8.03481 11.2154 7.88114 11.2804 7.72747 11.2804C7.5738 11.2804 7.42014 11.2154 7.30784 11.109C7.20145 10.9967 7.13644 10.8431 7.13644 10.6894C7.13644 10.5357 7.20145 10.3821 7.30784 10.2698C7.52652 10.0511 7.92842 10.0511 8.1471 10.2698C8.25349 10.3821 8.3185 10.5357 8.3185 10.6894C8.3185 10.8431 8.25349 10.9967 8.1471 11.109ZM8.1471 9.04042C8.11755 9.06407 8.088 9.08771 8.05845 9.11135C8.02299 9.13499 7.98752 9.15272 7.95206 9.16454C7.9166 9.18227 7.88114 9.19409 7.84568 9.2C7.8043 9.20591 7.76884 9.21182 7.72747 9.21182C7.5738 9.21182 7.42014 9.14681 7.30784 9.04042C7.20145 8.92813 7.13644 8.77446 7.13644 8.62079C7.13644 8.46713 7.20145 8.31346 7.30784 8.20116C7.36103 8.14797 7.42605 8.1066 7.50288 8.07705C7.72156 7.98248 7.98161 8.03567 8.1471 8.20116C8.25349 8.31346 8.3185 8.46713 8.3185 8.62079C8.3185 8.77446 8.25349 8.92813 8.1471 9.04042ZM10.2157 11.109C10.1034 11.2154 9.94974 11.2804 9.79608 11.2804C9.64241 11.2804 9.48874 11.2154 9.37644 11.109C9.27006 10.9967 9.20505 10.8431 9.20505 10.6894C9.20505 10.5357 9.27006 10.3821 9.37644 10.2698C9.59513 10.0511 9.99702 10.0511 10.2157 10.2698C10.3221 10.3821 10.3871 10.5357 10.3871 10.6894C10.3871 10.8431 10.3221 10.9967 10.2157 11.109ZM10.2157 9.04042C10.1862 9.06407 10.1566 9.08771 10.1271 9.11135C10.0916 9.13499 10.0561 9.15272 10.0207 9.16454C9.9852 9.18227 9.94974 9.19409 9.91428 9.2C9.87291 9.20591 9.83154 9.21182 9.79608 9.21182C9.64241 9.21182 9.48874 9.14681 9.37644 9.04042C9.27006 8.92813 9.20505 8.77446 9.20505 8.62079C9.20505 8.46713 9.27006 8.31346 9.37644 8.20116C9.43555 8.14797 9.49465 8.1066 9.57148 8.07705C9.67787 8.02976 9.79607 8.01794 9.91428 8.04158C9.94974 8.04749 9.9852 8.05931 10.0207 8.07705C10.0561 8.08887 10.0916 8.1066 10.1271 8.13024C10.1566 8.15388 10.1862 8.17752 10.2157 8.20116C10.3221 8.31346 10.3871 8.46713 10.3871 8.62079C10.3871 8.77446 10.3221 8.92813 10.2157 9.04042Z" fill="#CBD0DC"/>
</svg>
