<svg width="20" height="14" viewBox="0 0 20 14" fill="none" xmlns="http://www.w3.org/2000/svg">
<path d="M9.99998 13.5243C3.8606 13.5243 0.242479 7.71309 0.0912294 7.46621C0.00435444 7.32309 -0.0187706 7.16059 0.0137294 7.00934C-0.0193956 6.85559 0.00497944 6.68809 0.0962294 6.54434C0.252479 6.29684 3.99998 0.475586 9.99935 0.475586C16.1387 0.475586 19.7569 6.28684 19.9081 6.53371C19.995 6.67684 20.0181 6.83934 19.9856 6.99059C20.0187 7.14434 19.9944 7.31184 19.9031 7.45559C19.7469 7.70371 15.9994 13.5243 9.99998 13.5243ZM1.28873 7.01246C1.95935 7.99246 5.16748 12.275 9.99998 12.275C14.7319 12.275 18.0194 7.97496 18.7112 6.98809C18.0406 6.00809 14.8325 1.72559 9.99998 1.72559C5.2681 1.72559 1.9806 6.02496 1.28873 7.01246ZM9.99998 10.5631C8.01498 10.5631 6.39998 8.94809 6.39998 6.96309C6.39998 4.97809 8.01498 3.36309 9.99998 3.36309C11.985 3.36309 13.6 4.97809 13.6 6.96309C13.6 8.94809 11.985 10.5631 9.99998 10.5631ZM9.99998 4.61371C8.70435 4.61371 7.64998 5.66809 7.64998 6.96371C7.64998 8.25934 8.70435 9.31371 9.99998 9.31371C11.2956 9.31371 12.35 8.25934 12.35 6.96371C12.35 5.66809 11.2956 4.61371 9.99998 4.61371Z" fill="#FF7A2C"/>
</svg>
