<svg width="305" height="90" viewBox="0 0 305 90" fill="none" xmlns="http://www.w3.org/2000/svg">
<path d="M125.049 19.168C123.481 19.168 122.041 18.8 120.729 18.064C119.417 17.328 118.377 16.312 117.609 15.016C116.841 13.704 116.457 12.224 116.457 10.576C116.457 8.944 116.841 7.48 117.609 6.184C118.377 4.872 119.417 3.848 120.729 3.112C122.041 2.376 123.481 2.008 125.049 2.008C126.633 2.008 128.073 2.376 129.369 3.112C130.681 3.848 131.713 4.872 132.465 6.184C133.233 7.48 133.617 8.944 133.617 10.576C133.617 12.224 133.233 13.704 132.465 15.016C131.713 16.312 130.681 17.328 129.369 18.064C128.057 18.8 126.617 19.168 125.049 19.168ZM125.049 16.168C126.057 16.168 126.945 15.944 127.713 15.496C128.481 15.032 129.081 14.376 129.513 13.528C129.945 12.68 130.161 11.696 130.161 10.576C130.161 9.456 129.945 8.48 129.513 7.648C129.081 6.8 128.481 6.152 127.713 5.704C126.945 5.256 126.057 5.032 125.049 5.032C124.041 5.032 123.145 5.256 122.361 5.704C121.593 6.152 120.993 6.8 120.561 7.648C120.129 8.48 119.913 9.456 119.913 10.576C119.913 11.696 120.129 12.68 120.561 13.528C120.993 14.376 121.593 15.032 122.361 15.496C123.145 15.944 124.041 16.168 125.049 16.168ZM143.485 19.168C141.917 19.168 140.477 18.8 139.165 18.064C137.853 17.328 136.813 16.312 136.045 15.016C135.277 13.704 134.893 12.224 134.893 10.576C134.893 8.944 135.277 7.48 136.045 6.184C136.813 4.872 137.853 3.848 139.165 3.112C140.477 2.376 141.917 2.008 143.485 2.008C145.069 2.008 146.509 2.376 147.805 3.112C149.117 3.848 150.149 4.872 150.901 6.184C151.669 7.48 152.053 8.944 152.053 10.576C152.053 12.224 151.669 13.704 150.901 15.016C150.149 16.312 149.117 17.328 147.805 18.064C146.493 18.8 145.053 19.168 143.485 19.168ZM143.485 16.168C144.493 16.168 145.381 15.944 146.149 15.496C146.917 15.032 147.517 14.376 147.949 13.528C148.381 12.68 148.597 11.696 148.597 10.576C148.597 9.456 148.381 8.48 147.949 7.648C147.517 6.8 146.917 6.152 146.149 5.704C145.381 5.256 144.493 5.032 143.485 5.032C142.477 5.032 141.581 5.256 140.797 5.704C140.029 6.152 139.429 6.8 138.997 7.648C138.565 8.48 138.349 9.456 138.349 10.576C138.349 11.696 138.565 12.68 138.997 13.528C139.429 14.376 140.029 15.032 140.797 15.496C141.581 15.944 142.477 16.168 143.485 16.168ZM166.36 7.432C166.36 8.328 166.144 9.168 165.712 9.952C165.296 10.736 164.632 11.368 163.72 11.848C162.824 12.328 161.688 12.568 160.312 12.568H157.504V19H154.144V2.248H160.312C161.608 2.248 162.712 2.472 163.624 2.92C164.536 3.368 165.216 3.984 165.664 4.768C166.128 5.552 166.36 6.44 166.36 7.432ZM160.168 9.856C161.096 9.856 161.784 9.648 162.232 9.232C162.68 8.8 162.904 8.2 162.904 7.432C162.904 5.8 161.992 4.984 160.168 4.984H157.504V9.856H160.168ZM174.122 19.168C172.954 19.168 171.898 18.968 170.954 18.568C170.026 18.168 169.29 17.592 168.746 16.84C168.202 16.088 167.922 15.2 167.906 14.176H171.506C171.554 14.864 171.794 15.408 172.226 15.808C172.674 16.208 173.282 16.408 174.05 16.408C174.834 16.408 175.45 16.224 175.898 15.856C176.346 15.472 176.57 14.976 176.57 14.368C176.57 13.872 176.418 13.464 176.114 13.144C175.81 12.824 175.426 12.576 174.962 12.4C174.514 12.208 173.89 12 173.09 11.776C172.002 11.456 171.114 11.144 170.426 10.84C169.754 10.52 169.17 10.048 168.674 9.424C168.194 8.784 167.954 7.936 167.954 6.88C167.954 5.888 168.202 5.024 168.698 4.288C169.194 3.552 169.89 2.992 170.786 2.608C171.682 2.208 172.706 2.008 173.858 2.008C175.586 2.008 176.986 2.432 178.058 3.28C179.146 4.112 179.746 5.28 179.858 6.784H176.162C176.13 6.208 175.882 5.736 175.418 5.368C174.97 4.984 174.37 4.792 173.618 4.792C172.962 4.792 172.434 4.96 172.034 5.296C171.65 5.632 171.458 6.12 171.458 6.76C171.458 7.208 171.602 7.584 171.89 7.888C172.194 8.176 172.562 8.416 172.994 8.608C173.442 8.784 174.066 8.992 174.866 9.232C175.954 9.552 176.842 9.872 177.53 10.192C178.218 10.512 178.81 10.992 179.306 11.632C179.802 12.272 180.05 13.112 180.05 14.152C180.05 15.048 179.818 15.88 179.354 16.648C178.89 17.416 178.21 18.032 177.314 18.496C176.418 18.944 175.354 19.168 174.122 19.168ZM186.899 1.96L186.515 13.552H183.683L183.275 1.96H186.899ZM185.171 19.168C184.563 19.168 184.059 18.984 183.659 18.616C183.275 18.232 183.083 17.76 183.083 17.2C183.083 16.64 183.275 16.176 183.659 15.808C184.059 15.424 184.563 15.232 185.171 15.232C185.763 15.232 186.251 15.424 186.635 15.808C187.019 16.176 187.211 16.64 187.211 17.2C187.211 17.76 187.019 18.232 186.635 18.616C186.251 18.984 185.763 19.168 185.171 19.168Z" fill="#1B1B1B"/>
<path d="M94.1178 49H90.7578L83.1498 37.504V49H79.7898V32.224H83.1498L90.7578 43.744V32.224H94.1178V49ZM104.806 49.168C103.238 49.168 101.798 48.8 100.486 48.064C99.1742 47.328 98.1342 46.312 97.3662 45.016C96.5982 43.704 96.2142 42.224 96.2142 40.576C96.2142 38.944 96.5982 37.48 97.3662 36.184C98.1342 34.872 99.1742 33.848 100.486 33.112C101.798 32.376 103.238 32.008 104.806 32.008C106.39 32.008 107.83 32.376 109.126 33.112C110.438 33.848 111.47 34.872 112.222 36.184C112.99 37.48 113.374 38.944 113.374 40.576C113.374 42.224 112.99 43.704 112.222 45.016C111.47 46.312 110.438 47.328 109.126 48.064C107.814 48.8 106.374 49.168 104.806 49.168ZM104.806 46.168C105.814 46.168 106.702 45.944 107.47 45.496C108.238 45.032 108.838 44.376 109.27 43.528C109.702 42.68 109.918 41.696 109.918 40.576C109.918 39.456 109.702 38.48 109.27 37.648C108.838 36.8 108.238 36.152 107.47 35.704C106.702 35.256 105.814 35.032 104.806 35.032C103.798 35.032 102.902 35.256 102.118 35.704C101.35 36.152 100.75 36.8 100.318 37.648C99.8862 38.48 99.6702 39.456 99.6702 40.576C99.6702 41.696 99.8862 42.68 100.318 43.528C100.75 44.376 101.35 45.032 102.118 45.496C102.902 45.944 103.798 46.168 104.806 46.168ZM124.137 32.248V49H120.777V32.248H124.137ZM141.376 49H138.016L130.408 37.504V49H127.048V32.224H130.408L138.016 43.744V32.224H141.376V49ZM155.689 32.248V34.96H151.225V49H147.865V34.96H143.401V32.248H155.689ZM161.092 34.96V39.16H166.732V41.824H161.092V46.264H167.452V49H157.732V32.224H167.452V34.96H161.092ZM178.738 49L175.042 42.472H173.458V49H170.098V32.248H176.386C177.682 32.248 178.786 32.48 179.698 32.944C180.61 33.392 181.29 34.008 181.738 34.792C182.202 35.56 182.434 36.424 182.434 37.384C182.434 38.488 182.114 39.488 181.474 40.384C180.834 41.264 179.882 41.872 178.618 42.208L182.626 49H178.738ZM173.458 39.952H176.266C177.178 39.952 177.858 39.736 178.306 39.304C178.754 38.856 178.978 38.24 178.978 37.456C178.978 36.688 178.754 36.096 178.306 35.68C177.858 35.248 177.178 35.032 176.266 35.032H173.458V39.952ZM199.393 49H196.033L188.425 37.504V49H185.065V32.224H188.425L196.033 43.744V32.224H199.393V49ZM205.665 34.96V39.16H211.305V41.824H205.665V46.264H212.025V49H202.305V32.224H212.025V34.96H205.665ZM226.071 32.248V34.96H221.607V49H218.247V34.96H213.783V32.248H226.071Z" fill="#1B1B1B"/>
<path d="M9.46062 77.192C9.46062 77.7573 9.32729 78.2907 9.06062 78.792C8.79395 79.2933 8.36729 79.704 7.78062 80.024C7.19395 80.3333 6.44195 80.488 5.52462 80.488H3.50862V85H1.68462V73.88H5.52462C6.37795 73.88 7.09795 74.0293 7.68462 74.328C8.28195 74.616 8.72462 75.0107 9.01262 75.512C9.31129 76.0133 9.46062 76.5733 9.46062 77.192ZM5.52462 79C6.21795 79 6.73529 78.8453 7.07662 78.536C7.41795 78.216 7.58862 77.768 7.58862 77.192C7.58862 75.976 6.90062 75.368 5.52462 75.368H3.50862V79H5.52462ZM12.6162 73.16V85H10.7922V73.16H12.6162ZM22.683 80.376C22.683 80.7067 22.6617 81.0053 22.619 81.272H15.883C15.9363 81.976 16.1977 82.5413 16.667 82.968C17.1363 83.3947 17.7123 83.608 18.395 83.608C19.3763 83.608 20.0697 83.1973 20.475 82.376H22.443C22.1763 83.1867 21.691 83.8533 20.987 84.376C20.2937 84.888 19.4297 85.144 18.395 85.144C17.5523 85.144 16.795 84.9573 16.123 84.584C15.4617 84.2 14.939 83.6667 14.555 82.984C14.1817 82.2907 13.995 81.4907 13.995 80.584C13.995 79.6773 14.1763 78.8827 14.539 78.2C14.9123 77.5067 15.4297 76.9733 16.091 76.6C16.763 76.2267 17.531 76.04 18.395 76.04C19.227 76.04 19.9683 76.2213 20.619 76.584C21.2697 76.9467 21.7763 77.4587 22.139 78.12C22.5017 78.7707 22.683 79.5227 22.683 80.376ZM20.779 79.8C20.7683 79.128 20.5283 78.5893 20.059 78.184C19.5897 77.7787 19.0083 77.576 18.315 77.576C17.6857 77.576 17.147 77.7787 16.699 78.184C16.251 78.5787 15.9843 79.1173 15.899 79.8H20.779ZM23.462 80.552C23.462 79.6667 23.6433 78.8827 24.006 78.2C24.3793 77.5173 24.8807 76.9893 25.51 76.616C26.15 76.232 26.854 76.04 27.622 76.04C28.3153 76.04 28.918 76.1787 29.43 76.456C29.9527 76.7227 30.3687 77.0587 30.678 77.464V76.184H32.518V85H30.678V83.688C30.3687 84.104 29.9473 84.4507 29.414 84.728C28.8807 85.0053 28.2727 85.144 27.59 85.144C26.8327 85.144 26.1393 84.952 25.51 84.568C24.8807 84.1733 24.3793 83.6293 24.006 82.936C23.6433 82.232 23.462 81.4373 23.462 80.552ZM30.678 80.584C30.678 79.976 30.55 79.448 30.294 79C30.0487 78.552 29.7233 78.2107 29.318 77.976C28.9127 77.7413 28.4753 77.624 28.006 77.624C27.5367 77.624 27.0993 77.7413 26.694 77.976C26.2887 78.2 25.958 78.536 25.702 78.984C25.4567 79.4213 25.334 79.944 25.334 80.552C25.334 81.16 25.4567 81.6933 25.702 82.152C25.958 82.6107 26.2887 82.9627 26.694 83.208C27.11 83.4427 27.5473 83.56 28.006 83.56C28.4753 83.56 28.9127 83.4427 29.318 83.208C29.7233 82.9733 30.0487 82.632 30.294 82.184C30.55 81.7253 30.678 81.192 30.678 80.584ZM37.7057 85.144C37.0124 85.144 36.3884 85.0213 35.8337 84.776C35.2897 84.52 34.8577 84.1787 34.5377 83.752C34.2177 83.3147 34.0471 82.8293 34.0257 82.296H35.9137C35.9457 82.6693 36.1217 82.984 36.4417 83.24C36.7724 83.4853 37.1831 83.608 37.6737 83.608C38.1857 83.608 38.5804 83.512 38.8577 83.32C39.1457 83.1173 39.2897 82.8613 39.2897 82.552C39.2897 82.2213 39.1297 81.976 38.8097 81.816C38.5004 81.656 38.0044 81.48 37.3217 81.288C36.6604 81.1067 36.1217 80.9307 35.7057 80.76C35.2897 80.5893 34.9271 80.328 34.6177 79.976C34.3191 79.624 34.1697 79.16 34.1697 78.584C34.1697 78.1147 34.3084 77.688 34.5857 77.304C34.8631 76.9093 35.2577 76.6 35.7697 76.376C36.2924 76.152 36.8897 76.04 37.5617 76.04C38.5644 76.04 39.3697 76.296 39.9777 76.808C40.5964 77.3093 40.9271 77.9973 40.9697 78.872H39.1457C39.1137 78.4773 38.9537 78.1627 38.6657 77.928C38.3777 77.6933 37.9884 77.576 37.4977 77.576C37.0177 77.576 36.6497 77.6667 36.3937 77.848C36.1377 78.0293 36.0097 78.2693 36.0097 78.568C36.0097 78.8027 36.0951 79 36.2657 79.16C36.4364 79.32 36.6444 79.448 36.8897 79.544C37.1351 79.6293 37.4977 79.7413 37.9777 79.88C38.6177 80.0507 39.1404 80.2267 39.5457 80.408C39.9617 80.5787 40.3191 80.8347 40.6177 81.176C40.9164 81.5173 41.0711 81.9707 41.0817 82.536C41.0817 83.0373 40.9431 83.4853 40.6657 83.88C40.3884 84.2747 39.9937 84.584 39.4817 84.808C38.9804 85.032 38.3884 85.144 37.7057 85.144ZM50.7246 80.376C50.7246 80.7067 50.7033 81.0053 50.6606 81.272H43.9246C43.978 81.976 44.2393 82.5413 44.7086 82.968C45.178 83.3947 45.754 83.608 46.4366 83.608C47.418 83.608 48.1113 83.1973 48.5166 82.376H50.4846C50.218 83.1867 49.7326 83.8533 49.0286 84.376C48.3353 84.888 47.4713 85.144 46.4366 85.144C45.594 85.144 44.8366 84.9573 44.1646 84.584C43.5033 84.2 42.9806 83.6667 42.5966 82.984C42.2233 82.2907 42.0366 81.4907 42.0366 80.584C42.0366 79.6773 42.218 78.8827 42.5806 78.2C42.954 77.5067 43.4713 76.9733 44.1326 76.6C44.8046 76.2267 45.5726 76.04 46.4366 76.04C47.2686 76.04 48.01 76.2213 48.6606 76.584C49.3113 76.9467 49.818 77.4587 50.1806 78.12C50.5433 78.7707 50.7246 79.5227 50.7246 80.376ZM48.8206 79.8C48.81 79.128 48.57 78.5893 48.1006 78.184C47.6313 77.7787 47.05 77.576 46.3566 77.576C45.7273 77.576 45.1886 77.7787 44.7406 78.184C44.2926 78.5787 44.026 79.1173 43.9406 79.8H48.8206ZM55.2519 79.416C55.2519 78.328 55.5025 77.352 56.0039 76.488C56.5159 75.624 57.2039 74.952 58.0679 74.472C58.9425 73.9813 59.8972 73.736 60.9319 73.736C62.1159 73.736 63.1665 74.0293 64.0839 74.616C65.0119 75.192 65.6839 76.0133 66.0999 77.08H63.9079C63.6199 76.4933 63.2199 76.056 62.7079 75.768C62.1959 75.48 61.6039 75.336 60.9319 75.336C60.1959 75.336 59.5399 75.5013 58.9639 75.832C58.3879 76.1627 57.9345 76.6373 57.6039 77.256C57.2839 77.8747 57.1239 78.5947 57.1239 79.416C57.1239 80.2373 57.2839 80.9573 57.6039 81.576C57.9345 82.1947 58.3879 82.6747 58.9639 83.016C59.5399 83.3467 60.1959 83.512 60.9319 83.512C61.6039 83.512 62.1959 83.368 62.7079 83.08C63.2199 82.792 63.6199 82.3547 63.9079 81.768H66.0999C65.6839 82.8347 65.0119 83.656 64.0839 84.232C63.1665 84.808 62.1159 85.096 60.9319 85.096C59.8865 85.096 58.9319 84.856 58.0679 84.376C57.2039 83.8853 56.5159 83.208 56.0039 82.344C55.5025 81.48 55.2519 80.504 55.2519 79.416ZM72.3869 76.04C73.0589 76.04 73.6562 76.184 74.1789 76.472C74.7122 76.76 75.1282 77.1867 75.4269 77.752C75.7362 78.3173 75.8909 79 75.8909 79.8V85H74.0829V80.072C74.0829 79.2827 73.8855 78.68 73.4909 78.264C73.0962 77.8373 72.5575 77.624 71.8749 77.624C71.1922 77.624 70.6482 77.8373 70.2429 78.264C69.8482 78.68 69.6509 79.2827 69.6509 80.072V85H67.8269V73.16H69.6509V77.208C69.9602 76.8347 70.3495 76.5467 70.8189 76.344C71.2989 76.1413 71.8215 76.04 72.3869 76.04ZM85.8895 80.376C85.8895 80.7067 85.8682 81.0053 85.8255 81.272H79.0895C79.1428 81.976 79.4042 82.5413 79.8735 82.968C80.3428 83.3947 80.9188 83.608 81.6015 83.608C82.5828 83.608 83.2762 83.1973 83.6815 82.376H85.6495C85.3828 83.1867 84.8975 83.8533 84.1935 84.376C83.5002 84.888 82.6362 85.144 81.6015 85.144C80.7588 85.144 80.0015 84.9573 79.3295 84.584C78.6682 84.2 78.1455 83.6667 77.7615 82.984C77.3882 82.2907 77.2015 81.4907 77.2015 80.584C77.2015 79.6773 77.3828 78.8827 77.7455 78.2C78.1188 77.5067 78.6362 76.9733 79.2975 76.6C79.9695 76.2267 80.7375 76.04 81.6015 76.04C82.4335 76.04 83.1748 76.2213 83.8255 76.584C84.4762 76.9467 84.9828 77.4587 85.3455 78.12C85.7082 78.7707 85.8895 79.5227 85.8895 80.376ZM83.9855 79.8C83.9748 79.128 83.7348 78.5893 83.2655 78.184C82.7962 77.7787 82.2148 77.576 81.5215 77.576C80.8922 77.576 80.3535 77.7787 79.9055 78.184C79.4575 78.5787 79.1908 79.1173 79.1055 79.8H83.9855ZM86.6685 80.584C86.6685 79.6773 86.8498 78.8827 87.2125 78.2C87.5858 77.5067 88.0978 76.9733 88.7485 76.6C89.3992 76.2267 90.1458 76.04 90.9885 76.04C92.0552 76.04 92.9352 76.296 93.6285 76.808C94.3325 77.3093 94.8072 78.0293 95.0525 78.968H93.0845C92.9245 78.5307 92.6685 78.1893 92.3165 77.944C91.9645 77.6987 91.5218 77.576 90.9885 77.576C90.2418 77.576 89.6445 77.8427 89.1965 78.376C88.7592 78.8987 88.5405 79.6347 88.5405 80.584C88.5405 81.5333 88.7592 82.2747 89.1965 82.808C89.6445 83.3413 90.2418 83.608 90.9885 83.608C92.0445 83.608 92.7432 83.144 93.0845 82.216H95.0525C94.7965 83.112 94.3165 83.8267 93.6125 84.36C92.9085 84.8827 92.0338 85.144 90.9885 85.144C90.1458 85.144 89.3992 84.9573 88.7485 84.584C88.0978 84.2 87.5858 83.6667 87.2125 82.984C86.8498 82.2907 86.6685 81.4907 86.6685 80.584ZM99.9502 80.6L104.014 85H101.55L98.2862 81.208V85H96.4622V73.16H98.2862V80.04L101.486 76.184H104.014L99.9502 80.6ZM116.598 76.184L111.19 89.144H109.302L111.094 84.856L107.622 76.184H109.654L112.134 82.904L114.71 76.184H116.598ZM121.39 85.144C120.558 85.144 119.806 84.9573 119.134 84.584C118.462 84.2 117.934 83.6667 117.55 82.984C117.166 82.2907 116.974 81.4907 116.974 80.584C116.974 79.688 117.172 78.8933 117.566 78.2C117.961 77.5067 118.5 76.9733 119.182 76.6C119.865 76.2267 120.628 76.04 121.47 76.04C122.313 76.04 123.076 76.2267 123.758 76.6C124.441 76.9733 124.98 77.5067 125.374 78.2C125.769 78.8933 125.966 79.688 125.966 80.584C125.966 81.48 125.764 82.2747 125.358 82.968C124.953 83.6613 124.398 84.2 123.694 84.584C123.001 84.9573 122.233 85.144 121.39 85.144ZM121.39 83.56C121.86 83.56 122.297 83.448 122.702 83.224C123.118 83 123.454 82.664 123.71 82.216C123.966 81.768 124.094 81.224 124.094 80.584C124.094 79.944 123.972 79.4053 123.726 78.968C123.481 78.52 123.156 78.184 122.75 77.96C122.345 77.736 121.908 77.624 121.438 77.624C120.969 77.624 120.532 77.736 120.126 77.96C119.732 78.184 119.417 78.52 119.182 78.968C118.948 79.4053 118.83 79.944 118.83 80.584C118.83 81.5333 119.07 82.2693 119.55 82.792C120.041 83.304 120.654 83.56 121.39 83.56ZM135.345 76.184V85H133.521V83.96C133.233 84.3227 132.855 84.6107 132.385 84.824C131.927 85.0267 131.436 85.128 130.913 85.128C130.22 85.128 129.596 84.984 129.041 84.696C128.497 84.408 128.065 83.9813 127.745 83.416C127.436 82.8507 127.281 82.168 127.281 81.368V76.184H129.089V81.096C129.089 81.8853 129.287 82.4933 129.681 82.92C130.076 83.336 130.615 83.544 131.297 83.544C131.98 83.544 132.519 83.336 132.913 82.92C133.319 82.4933 133.521 81.8853 133.521 81.096V76.184H135.345ZM139.168 77.464C139.435 77.016 139.787 76.6693 140.224 76.424C140.672 76.168 141.2 76.04 141.808 76.04V77.928H141.344C140.629 77.928 140.085 78.1093 139.712 78.472C139.349 78.8347 139.168 79.464 139.168 80.36V85H137.344V76.184H139.168V77.464ZM151.273 76.04C151.966 76.04 152.585 76.184 153.129 76.472C153.684 76.76 154.116 77.1867 154.425 77.752C154.734 78.3173 154.889 79 154.889 79.8V85H153.081V80.072C153.081 79.2827 152.884 78.68 152.489 78.264C152.094 77.8373 151.556 77.624 150.873 77.624C150.19 77.624 149.646 77.8373 149.241 78.264C148.846 78.68 148.649 79.2827 148.649 80.072V85H146.825V76.184H148.649V77.192C148.948 76.8293 149.326 76.5467 149.785 76.344C150.254 76.1413 150.75 76.04 151.273 76.04ZM164.888 80.376C164.888 80.7067 164.866 81.0053 164.824 81.272H158.088C158.141 81.976 158.402 82.5413 158.872 82.968C159.341 83.3947 159.917 83.608 160.6 83.608C161.581 83.608 162.274 83.1973 162.68 82.376H164.648C164.381 83.1867 163.896 83.8533 163.192 84.376C162.498 84.888 161.634 85.144 160.6 85.144C159.757 85.144 159 84.9573 158.328 84.584C157.666 84.2 157.144 83.6667 156.76 82.984C156.386 82.2907 156.2 81.4907 156.2 80.584C156.2 79.6773 156.381 78.8827 156.744 78.2C157.117 77.5067 157.634 76.9733 158.296 76.6C158.968 76.2267 159.736 76.04 160.6 76.04C161.432 76.04 162.173 76.2213 162.824 76.584C163.474 76.9467 163.981 77.4587 164.344 78.12C164.706 78.7707 164.888 79.5227 164.888 80.376ZM162.984 79.8C162.973 79.128 162.733 78.5893 162.264 78.184C161.794 77.7787 161.213 77.576 160.52 77.576C159.89 77.576 159.352 77.7787 158.904 78.184C158.456 78.5787 158.189 79.1173 158.104 79.8H162.984ZM168.403 77.672V82.552C168.403 82.8827 168.477 83.1227 168.627 83.272C168.787 83.4107 169.053 83.48 169.427 83.48H170.547V85H169.107C168.285 85 167.656 84.808 167.219 84.424C166.781 84.04 166.563 83.416 166.563 82.552V77.672H165.523V76.184H166.563V73.992H168.403V76.184H170.547V77.672H168.403ZM183.66 76.184L180.924 85H179.004L177.228 78.488L175.452 85H173.532L170.78 76.184H172.636L174.476 83.272L176.348 76.184H178.252L180.044 83.24L181.868 76.184H183.66ZM188.439 85.144C187.607 85.144 186.855 84.9573 186.183 84.584C185.511 84.2 184.983 83.6667 184.599 82.984C184.215 82.2907 184.023 81.4907 184.023 80.584C184.023 79.688 184.22 78.8933 184.615 78.2C185.01 77.5067 185.548 76.9733 186.231 76.6C186.914 76.2267 187.676 76.04 188.519 76.04C189.362 76.04 190.124 76.2267 190.807 76.6C191.49 76.9733 192.028 77.5067 192.423 78.2C192.818 78.8933 193.015 79.688 193.015 80.584C193.015 81.48 192.812 82.2747 192.407 82.968C192.002 83.6613 191.447 84.2 190.743 84.584C190.05 84.9573 189.282 85.144 188.439 85.144ZM188.439 83.56C188.908 83.56 189.346 83.448 189.751 83.224C190.167 83 190.503 82.664 190.759 82.216C191.015 81.768 191.143 81.224 191.143 80.584C191.143 79.944 191.02 79.4053 190.775 78.968C190.53 78.52 190.204 78.184 189.799 77.96C189.394 77.736 188.956 77.624 188.487 77.624C188.018 77.624 187.58 77.736 187.175 77.96C186.78 78.184 186.466 78.52 186.231 78.968C185.996 79.4053 185.879 79.944 185.879 80.584C185.879 81.5333 186.119 82.2693 186.599 82.792C187.09 83.304 187.703 83.56 188.439 83.56ZM196.234 77.464C196.501 77.016 196.853 76.6693 197.29 76.424C197.738 76.168 198.266 76.04 198.874 76.04V77.928H198.41C197.695 77.928 197.151 78.1093 196.778 78.472C196.415 78.8347 196.234 79.464 196.234 80.36V85H194.41V76.184H196.234V77.464ZM203.631 80.6L207.695 85H205.231L201.967 81.208V85H200.143V73.16H201.967V80.04L205.167 76.184H207.695L203.631 80.6ZM211.734 79.416C211.734 78.328 211.985 77.352 212.486 76.488C212.998 75.624 213.686 74.952 214.55 74.472C215.425 73.9813 216.38 73.736 217.414 73.736C218.598 73.736 219.649 74.0293 220.566 74.616C221.494 75.192 222.166 76.0133 222.582 77.08H220.39C220.102 76.4933 219.702 76.056 219.19 75.768C218.678 75.48 218.086 75.336 217.414 75.336C216.678 75.336 216.022 75.5013 215.446 75.832C214.87 76.1627 214.417 76.6373 214.086 77.256C213.766 77.8747 213.606 78.5947 213.606 79.416C213.606 80.2373 213.766 80.9573 214.086 81.576C214.417 82.1947 214.87 82.6747 215.446 83.016C216.022 83.3467 216.678 83.512 217.414 83.512C218.086 83.512 218.678 83.368 219.19 83.08C219.702 82.792 220.102 82.3547 220.39 81.768H222.582C222.166 82.8347 221.494 83.656 220.566 84.232C219.649 84.808 218.598 85.096 217.414 85.096C216.369 85.096 215.414 84.856 214.55 84.376C213.686 83.8853 212.998 83.208 212.486 82.344C211.985 81.48 211.734 80.504 211.734 79.416ZM228.133 85.144C227.301 85.144 226.549 84.9573 225.877 84.584C225.205 84.2 224.677 83.6667 224.293 82.984C223.909 82.2907 223.717 81.4907 223.717 80.584C223.717 79.688 223.915 78.8933 224.309 78.2C224.704 77.5067 225.243 76.9733 225.925 76.6C226.608 76.2267 227.371 76.04 228.213 76.04C229.056 76.04 229.819 76.2267 230.501 76.6C231.184 76.9733 231.723 77.5067 232.117 78.2C232.512 78.8933 232.709 79.688 232.709 80.584C232.709 81.48 232.507 82.2747 232.101 82.968C231.696 83.6613 231.141 84.2 230.437 84.584C229.744 84.9573 228.976 85.144 228.133 85.144ZM228.133 83.56C228.603 83.56 229.04 83.448 229.445 83.224C229.861 83 230.197 82.664 230.453 82.216C230.709 81.768 230.837 81.224 230.837 80.584C230.837 79.944 230.715 79.4053 230.469 78.968C230.224 78.52 229.899 78.184 229.493 77.96C229.088 77.736 228.651 77.624 228.181 77.624C227.712 77.624 227.275 77.736 226.869 77.96C226.475 78.184 226.16 78.52 225.925 78.968C225.691 79.4053 225.573 79.944 225.573 80.584C225.573 81.5333 225.813 82.2693 226.293 82.792C226.784 83.304 227.397 83.56 228.133 83.56ZM238.552 76.04C239.246 76.04 239.864 76.184 240.408 76.472C240.963 76.76 241.395 77.1867 241.704 77.752C242.014 78.3173 242.168 79 242.168 79.8V85H240.36V80.072C240.36 79.2827 240.163 78.68 239.768 78.264C239.374 77.8373 238.835 77.624 238.152 77.624C237.47 77.624 236.926 77.8373 236.52 78.264C236.126 78.68 235.928 79.2827 235.928 80.072V85H234.104V76.184H235.928V77.192C236.227 76.8293 236.606 76.5467 237.064 76.344C237.534 76.1413 238.03 76.04 238.552 76.04ZM248.535 76.04C249.228 76.04 249.847 76.184 250.391 76.472C250.946 76.76 251.378 77.1867 251.687 77.752C251.996 78.3173 252.151 79 252.151 79.8V85H250.343V80.072C250.343 79.2827 250.146 78.68 249.751 78.264C249.356 77.8373 248.818 77.624 248.135 77.624C247.452 77.624 246.908 77.8373 246.503 78.264C246.108 78.68 245.911 79.2827 245.911 80.072V85H244.087V76.184H245.911V77.192C246.21 76.8293 246.588 76.5467 247.047 76.344C247.516 76.1413 248.012 76.04 248.535 76.04ZM262.15 80.376C262.15 80.7067 262.128 81.0053 262.086 81.272H255.35C255.403 81.976 255.664 82.5413 256.134 82.968C256.603 83.3947 257.179 83.608 257.862 83.608C258.843 83.608 259.536 83.1973 259.942 82.376H261.91C261.643 83.1867 261.158 83.8533 260.454 84.376C259.76 84.888 258.896 85.144 257.862 85.144C257.019 85.144 256.262 84.9573 255.59 84.584C254.928 84.2 254.406 83.6667 254.022 82.984C253.648 82.2907 253.462 81.4907 253.462 80.584C253.462 79.6773 253.643 78.8827 254.006 78.2C254.379 77.5067 254.896 76.9733 255.558 76.6C256.23 76.2267 256.998 76.04 257.862 76.04C258.694 76.04 259.435 76.2213 260.086 76.584C260.736 76.9467 261.243 77.4587 261.606 78.12C261.968 78.7707 262.15 79.5227 262.15 80.376ZM260.246 79.8C260.235 79.128 259.995 78.5893 259.526 78.184C259.056 77.7787 258.475 77.576 257.782 77.576C257.152 77.576 256.614 77.7787 256.166 78.184C255.718 78.5787 255.451 79.1173 255.366 79.8H260.246ZM262.929 80.584C262.929 79.6773 263.11 78.8827 263.473 78.2C263.846 77.5067 264.358 76.9733 265.009 76.6C265.659 76.2267 266.406 76.04 267.249 76.04C268.315 76.04 269.195 76.296 269.889 76.808C270.593 77.3093 271.067 78.0293 271.313 78.968H269.345C269.185 78.5307 268.929 78.1893 268.577 77.944C268.225 77.6987 267.782 77.576 267.249 77.576C266.502 77.576 265.905 77.8427 265.457 78.376C265.019 78.8987 264.801 79.6347 264.801 80.584C264.801 81.5333 265.019 82.2747 265.457 82.808C265.905 83.3413 266.502 83.608 267.249 83.608C268.305 83.608 269.003 83.144 269.345 82.216H271.313C271.057 83.112 270.577 83.8267 269.873 84.36C269.169 84.8827 268.294 85.144 267.249 85.144C266.406 85.144 265.659 84.9573 265.009 84.584C264.358 84.2 263.846 83.6667 263.473 82.984C263.11 82.2907 262.929 81.4907 262.929 80.584ZM274.85 77.672V82.552C274.85 82.8827 274.925 83.1227 275.074 83.272C275.234 83.4107 275.501 83.48 275.874 83.48H276.994V85H275.554C274.733 85 274.104 84.808 273.666 84.424C273.229 84.04 273.01 83.416 273.01 82.552V77.672H271.97V76.184H273.01V73.992H274.85V76.184H276.994V77.672H274.85ZM279.196 75.016C278.865 75.016 278.588 74.904 278.364 74.68C278.14 74.456 278.028 74.1787 278.028 73.848C278.028 73.5173 278.14 73.24 278.364 73.016C278.588 72.792 278.865 72.68 279.196 72.68C279.516 72.68 279.788 72.792 280.012 73.016C280.236 73.24 280.348 73.5173 280.348 73.848C280.348 74.1787 280.236 74.456 280.012 74.68C279.788 74.904 279.516 75.016 279.196 75.016ZM280.092 76.184V85H278.268V76.184H280.092ZM285.902 85.144C285.07 85.144 284.318 84.9573 283.646 84.584C282.974 84.2 282.446 83.6667 282.062 82.984C281.678 82.2907 281.486 81.4907 281.486 80.584C281.486 79.688 281.684 78.8933 282.078 78.2C282.473 77.5067 283.012 76.9733 283.694 76.6C284.377 76.2267 285.14 76.04 285.982 76.04C286.825 76.04 287.588 76.2267 288.27 76.6C288.953 76.9733 289.492 77.5067 289.886 78.2C290.281 78.8933 290.478 79.688 290.478 80.584C290.478 81.48 290.276 82.2747 289.87 82.968C289.465 83.6613 288.91 84.2 288.206 84.584C287.513 84.9573 286.745 85.144 285.902 85.144ZM285.902 83.56C286.372 83.56 286.809 83.448 287.214 83.224C287.63 83 287.966 82.664 288.222 82.216C288.478 81.768 288.606 81.224 288.606 80.584C288.606 79.944 288.484 79.4053 288.238 78.968C287.993 78.52 287.668 78.184 287.262 77.96C286.857 77.736 286.42 77.624 285.95 77.624C285.481 77.624 285.044 77.736 284.638 77.96C284.244 78.184 283.929 78.52 283.694 78.968C283.46 79.4053 283.342 79.944 283.342 80.584C283.342 81.5333 283.582 82.2693 284.062 82.792C284.553 83.304 285.166 83.56 285.902 83.56ZM296.321 76.04C297.015 76.04 297.633 76.184 298.177 76.472C298.732 76.76 299.164 77.1867 299.473 77.752C299.783 78.3173 299.937 79 299.937 79.8V85H298.129V80.072C298.129 79.2827 297.932 78.68 297.537 78.264C297.143 77.8373 296.604 77.624 295.921 77.624C295.239 77.624 294.695 77.8373 294.289 78.264C293.895 78.68 293.697 79.2827 293.697 80.072V85H291.873V76.184H293.697V77.192C293.996 76.8293 294.375 76.5467 294.833 76.344C295.303 76.1413 295.799 76.04 296.321 76.04ZM302.592 85.112C302.261 85.112 301.984 85 301.76 84.776C301.536 84.552 301.424 84.2747 301.424 83.944C301.424 83.6133 301.536 83.336 301.76 83.112C301.984 82.888 302.261 82.776 302.592 82.776C302.912 82.776 303.184 82.888 303.408 83.112C303.632 83.336 303.744 83.6133 303.744 83.944C303.744 84.2747 303.632 84.552 303.408 84.776C303.184 85 302.912 85.112 302.592 85.112Z" fill="#1B1B1B"/>
</svg>
