<svg width="200" height="177" viewBox="0 0 200 177" fill="none" xmlns="http://www.w3.org/2000/svg">
<path d="M59.3228 10.24H50.4908L45.3068 40H33.1468L38.3308 10.24H29.5628L31.4188 0H61.1788L59.3228 10.24ZM31.1628 39.808L4.02675 36.928H31.6748L31.1628 39.808ZM33.3388 27.456L6.20275 24.576H33.8508L33.3388 27.456ZM34.4268 21.312L7.29075 18.432H34.9388L34.4268 21.312ZM35.5148 15.168L8.37875 12.288H36.0268L35.5148 15.168ZM32.2508 33.6L5.11475 30.72H32.7628L32.2508 33.6ZM27.8348 9.024L0.69875 6.144H28.2828L27.8348 9.024ZM28.8588 2.88L1.78675 0H29.3708L28.8588 2.88ZM92.3828 40L92.1268 34.816H84.0628L82.0788 40H71.0068L85.2148 6.144H101.087L103.583 40H92.3828ZM92.1268 25.664V15.936H91.2308L87.4548 25.664H92.1268ZM68.9588 39.744L42.7188 36.928H70.1748L68.9588 39.744ZM71.5828 33.536L45.3427 30.72H72.7988L71.5828 33.536ZM74.2068 27.392L47.9667 24.576H75.3588L74.2068 27.392ZM76.7668 21.248L50.5907 18.432H77.9828L76.7668 21.248ZM79.3908 15.104L53.2147 12.288H80.5428L79.3908 15.104ZM81.9508 8.896L55.8387 6.144H83.1028L81.9508 8.896ZM91.9867 36.928H119.635L118.739 39.808L91.9867 36.928ZM124.499 12.288C124.243 12.9707 123.965 13.9307 123.667 15.168L96.9147 12.288H124.499ZM122.899 20.8V21.312L95.7627 18.432H123.027C122.941 19.456 122.899 20.2453 122.899 20.8ZM120.787 33.536L94.0987 30.72H121.683L120.787 33.536ZM128.915 6.144C127.763 6.99733 126.888 7.89333 126.291 8.832L101.331 6.144H128.915ZM123.475 24.576C123.859 25.6853 124.477 26.6453 125.331 27.456L98.2587 24.576H123.475ZM149.011 16.192C146.109 15.5093 143.635 15.168 141.587 15.168C139.539 15.168 138.024 15.232 137.043 15.36L136.723 17.216L139.923 17.6C146.792 18.496 150.227 21.3333 150.227 26.112C150.227 26.6667 150.099 27.712 149.843 29.248C149.587 30.7413 149.16 32.192 148.563 33.6C147.965 35.008 147.197 36.16 146.259 37.056C145.363 37.9093 144.467 38.6133 143.571 39.168C142.717 39.68 141.608 40.0427 140.243 40.256C138.109 40.5973 135.251 40.768 131.667 40.768C128.125 40.768 124.541 40.2773 120.915 39.296L124.051 29.824C127.379 30.7627 130.28 31.232 132.755 31.232C135.272 31.232 137.043 31.168 138.067 31.04L138.387 28.992L134.355 28.544C130.899 28.16 128.445 27.3493 126.995 26.112C125.544 24.8747 124.819 23.104 124.819 20.8C124.819 19.9467 124.925 18.88 125.139 17.6C125.992 13.0347 127.528 9.87733 129.747 8.128C131.965 6.37866 135.336 5.504 139.859 5.504C144.424 5.504 148.499 5.952 152.083 6.848L149.011 16.192ZM182.276 40L179.268 28.928H178.884L176.964 40H166.212L172.1 6.144H182.916L181.06 16.512H181.38L187.972 6.144H199.684L188.932 22.72L193.988 40H182.276ZM164.1 39.808L136.964 36.928H164.612L164.1 39.808ZM166.276 27.456L139.14 24.576H166.788L166.276 27.456ZM167.364 21.312L140.228 18.432H167.876L167.364 21.312ZM168.452 15.168L141.316 12.288H168.964L168.452 15.168ZM169.54 9.024L142.404 6.144H169.988L169.54 9.024ZM165.188 33.6L138.052 30.72H165.7L165.188 33.6ZM100.909 83.744H93.9973L89.7733 108H78.5093L82.7333 83.744H75.6293L77.3573 74.144H102.637L100.909 83.744ZM76.5893 107.808L49.4532 104.928H77.1013L76.5893 107.808ZM78.7653 95.456L51.6292 92.576H79.2773L78.7653 95.456ZM79.8533 89.312L52.7172 86.432H80.3653L79.8533 89.312ZM73.7093 83.168L46.5732 80.288H74.2213L73.7093 83.168ZM74.7973 77.024L47.6612 74.144H75.2453L74.7973 77.024ZM77.6772 101.6L50.5412 98.72H78.1893L77.6772 101.6ZM133.232 73.504C137.84 73.504 141.126 74.4 143.088 76.192C145.051 77.9413 146.032 80.6933 146.032 84.448C146.032 86.2827 145.798 88.5013 145.328 91.104C144.262 97.248 142.384 101.728 139.696 104.544C137.008 107.36 132.784 108.768 127.024 108.768C122.502 108.768 119.28 107.893 117.36 106.144C115.44 104.352 114.48 101.6 114.48 97.888C114.48 95.968 114.715 93.7067 115.184 91.104C116.251 84.96 118.107 80.5013 120.752 77.728C123.398 74.912 127.558 73.504 133.232 73.504ZM128.88 99.04C130.118 99.04 131.035 98.8907 131.632 98.592C132.272 98.2933 132.699 97.632 132.912 96.608L135.344 83.232H131.44C130.246 83.232 129.307 83.3813 128.624 83.68C127.984 83.9787 127.6 84.6187 127.472 85.6L125.104 99.04H128.88ZM112.944 92.576C112.774 93.8987 112.667 94.7947 112.624 95.264L87.4082 92.576H112.944ZM114.16 86.432L113.584 89.12L88.5602 86.432H114.16ZM112.56 98.72C112.56 99.4027 112.646 100.299 112.816 101.408L87.6642 98.72H112.56ZM116.4 80.288C115.888 81.3973 115.526 82.2507 115.312 82.848L91.1202 80.288H116.4ZM113.904 104.928C114.416 105.952 114.971 106.741 115.568 107.296L93.2322 104.928H113.904ZM121.968 74.144C120.944 74.7413 120.07 75.4453 119.344 76.256L99.6962 74.144H121.968ZM67.8785 166.336H59.9425L58.2785 176H46.1185L53.1585 136H72.3585C79.6118 136 83.2385 139.371 83.2385 146.112C83.2385 149.312 82.7905 152.213 81.8945 154.816C80.9985 157.376 79.9958 159.424 78.8865 160.96C77.8198 162.453 76.3265 163.733 74.4065 164.8C72.5292 165.824 70.3532 166.336 67.8785 166.336ZM64.5505 156.096C66.0012 156.096 67.0892 155.947 67.8145 155.648C68.5825 155.307 69.0732 154.56 69.2865 153.408C69.8412 150.251 70.1185 148.523 70.1185 148.224C70.1185 147.413 69.7985 146.88 69.1585 146.624C68.5185 146.368 67.5585 146.24 66.2785 146.24H63.4625L61.7345 156.096H64.5505ZM44.1985 175.808L17.0625 172.928H44.7105L44.1985 175.808ZM46.3745 163.456L19.2385 160.576H46.8865L46.3745 163.456ZM48.4865 151.168L21.4145 148.288H48.9985L48.4865 151.168ZM49.5745 145.024L22.5025 142.144H50.0865L49.5745 145.024ZM45.2865 169.6L18.1505 166.72H45.7985L45.2865 169.6ZM50.6625 138.88L23.5905 136H51.1745L50.6625 138.88ZM47.3985 157.312L20.3265 154.432H47.9105L47.3985 157.312ZM117.45 142.144C123.679 142.144 126.794 144.96 126.794 150.592C126.794 153.152 126.282 155.819 125.258 158.592C124.234 161.323 122.506 163.371 120.074 164.736L123.722 176H111.754L109.322 166.144H107.786L106.058 176H95.306L101.194 142.144H117.45ZM115.082 153.216C115.082 153.173 115.103 152.96 115.146 152.576C115.146 151.851 114.015 151.488 111.754 151.488H110.346L109.322 157.376H111.37C113.333 157.376 114.442 156.736 114.698 155.456L115.082 153.216ZM93.194 175.808L66.058 172.928H93.706L93.194 175.808ZM95.37 163.456L68.234 160.576H95.882L95.37 163.456ZM96.458 157.312L69.322 154.432H96.97L96.458 157.312ZM97.546 151.168L70.41 148.288H98.058L97.546 151.168ZM98.634 145.024L71.498 142.144H99.082L98.634 145.024ZM94.282 169.6L67.146 166.72H94.794L94.282 169.6ZM160.951 141.504C165.559 141.504 168.844 142.4 170.807 144.192C172.77 145.941 173.751 148.693 173.751 152.448C173.751 154.283 173.516 156.501 173.047 159.104C171.98 165.248 170.103 169.728 167.415 172.544C164.727 175.36 160.503 176.768 154.743 176.768C150.22 176.768 146.999 175.893 145.079 174.144C143.159 172.352 142.199 169.6 142.199 165.888C142.199 163.968 142.434 161.707 142.903 159.104C143.97 152.96 145.826 148.501 148.471 145.728C151.116 142.912 155.276 141.504 160.951 141.504ZM156.599 167.04C157.836 167.04 158.754 166.891 159.351 166.592C159.991 166.293 160.418 165.632 160.631 164.608L163.063 151.232H159.159C157.964 151.232 157.026 151.381 156.343 151.68C155.703 151.979 155.319 152.619 155.191 153.6L152.823 167.04H156.599ZM140.663 160.576C140.492 161.899 140.386 162.795 140.343 163.264L115.127 160.576H140.663ZM141.879 154.432L141.303 157.12L116.279 154.432H141.879ZM140.279 166.72C140.279 167.403 140.364 168.299 140.535 169.408L115.383 166.72H140.279ZM144.119 148.288C143.607 149.397 143.244 150.251 143.031 150.848L118.839 148.288H144.119ZM141.623 172.928C142.135 173.952 142.69 174.741 143.287 175.296L120.951 172.928H141.623ZM149.687 142.144C148.663 142.741 147.788 143.445 147.063 144.256L127.415 142.144H149.687Z" fill="url(#paint0_linear_2041_2324)"/>
<defs>
<linearGradient id="paint0_linear_2041_2324" x1="94.0281" y1="-86.7895" x2="187.691" y2="340.506" gradientUnits="userSpaceOnUse">
<stop stop-color="#FF9B63"/>
<stop offset="1" stop-color="#FF621F"/>
</linearGradient>
</defs>
</svg>
