<svg width="25" height="24" viewBox="0 0 25 24" fill="none" xmlns="http://www.w3.org/2000/svg">
<path d="M3.92773 4.50056C3.92773 3.76174 4.22123 3.05318 4.74365 2.53076C5.26607 2.00834 5.97463 1.71484 6.71345 1.71484H18.2849C19.0237 1.71484 19.7323 2.00834 20.2547 2.53076C20.7771 3.05318 21.0706 3.76174 21.0706 4.50056V14.8968C20.9672 14.9654 20.8697 15.0454 20.7783 15.1368L19.7849 16.1303V4.50056C19.7849 4.10273 19.6268 3.7212 19.3455 3.4399C19.0642 3.15859 18.6827 3.00056 18.2849 3.00056H6.71345C6.31562 3.00056 5.93409 3.15859 5.65279 3.4399C5.37148 3.7212 5.21345 4.10273 5.21345 4.50056V19.5006C5.21345 20.3286 5.88545 21.0006 6.71345 21.0006H13.6289L14.9146 22.2863H6.71345C5.97463 22.2863 5.26607 21.9928 4.74365 21.4704C4.22123 20.9479 3.92773 20.2394 3.92773 19.5006V4.50056ZM9.49916 7.50056C9.49916 7.78472 9.38628 8.05724 9.18535 8.25817C8.98442 8.4591 8.71189 8.57199 8.42773 8.57199C8.14357 8.57199 7.87105 8.4591 7.67012 8.25817C7.46919 8.05724 7.35631 7.78472 7.35631 7.50056C7.35631 7.2164 7.46919 6.94388 7.67012 6.74294C7.87105 6.54201 8.14357 6.42913 8.42773 6.42913C8.71189 6.42913 8.98442 6.54201 9.18535 6.74294C9.38628 6.94388 9.49916 7.2164 9.49916 7.50056ZM8.42773 13.072C8.71189 13.072 8.98442 12.9591 9.18535 12.7582C9.38628 12.5572 9.49916 12.2847 9.49916 12.0006C9.49916 11.7164 9.38628 11.4439 9.18535 11.2429C8.98442 11.042 8.71189 10.9291 8.42773 10.9291C8.14357 10.9291 7.87105 11.042 7.67012 11.2429C7.46919 11.4439 7.35631 11.7164 7.35631 12.0006C7.35631 12.2847 7.46919 12.5572 7.67012 12.7582C7.87105 12.9591 8.14357 13.072 8.42773 13.072ZM8.42773 17.572C8.71189 17.572 8.98442 17.4591 9.18535 17.2582C9.38628 17.0572 9.49916 16.7847 9.49916 16.5006C9.49916 16.2164 9.38628 15.9439 9.18535 15.7429C8.98442 15.542 8.71189 15.4291 8.42773 15.4291C8.14357 15.4291 7.87105 15.542 7.67012 15.7429C7.46919 15.9439 7.35631 16.2164 7.35631 16.5006C7.35631 16.7847 7.46919 17.0572 7.67012 17.2582C7.87105 17.4591 8.14357 17.572 8.42773 17.572ZM11.4277 6.8577C11.2572 6.8577 11.0937 6.92543 10.9732 7.04599C10.8526 7.16655 10.7849 7.33006 10.7849 7.50056C10.7849 7.67105 10.8526 7.83457 10.9732 7.95513C11.0937 8.07569 11.2572 8.14342 11.4277 8.14342H16.9992C17.1697 8.14342 17.3332 8.07569 17.4537 7.95513C17.5743 7.83457 17.642 7.67105 17.642 7.50056C17.642 7.33006 17.5743 7.16655 17.4537 7.04599C17.3332 6.92543 17.1697 6.8577 16.9992 6.8577H11.4277ZM10.7849 12.0006C10.7849 11.8301 10.8526 11.6665 10.9732 11.546C11.0937 11.4254 11.2572 11.3577 11.4277 11.3577H16.9992C17.1697 11.3577 17.3332 11.4254 17.4537 11.546C17.5743 11.6665 17.642 11.8301 17.642 12.0006C17.642 12.1711 17.5743 12.3346 17.4537 12.4551C17.3332 12.5757 17.1697 12.6434 16.9992 12.6434H11.4277C11.2572 12.6434 11.0937 12.5757 10.9732 12.4551C10.8526 12.3346 10.7849 12.1711 10.7849 12.0006ZM11.4277 15.8577C11.2572 15.8577 11.0937 15.9254 10.9732 16.046C10.8526 16.1665 10.7849 16.3301 10.7849 16.5006C10.7849 16.6711 10.8526 16.8346 10.9732 16.9551C11.0937 17.0757 11.2572 17.1434 11.4277 17.1434H16.9992C17.1697 17.1434 17.3332 17.0757 17.4537 16.9551C17.5743 16.8346 17.642 16.6711 17.642 16.5006C17.642 16.3301 17.5743 16.1665 17.4537 16.046C17.3332 15.9254 17.1697 15.8577 16.9992 15.8577H11.4277ZM22.5963 16.9548L17.4534 22.0977C17.3329 22.2181 17.1695 22.2857 16.9992 22.2857C16.8288 22.2857 16.6654 22.2181 16.5449 22.0977L13.9752 19.528C13.8616 19.4061 13.7998 19.2449 13.8027 19.0784C13.8057 18.9119 13.8731 18.753 13.9909 18.6352C14.1087 18.5174 14.2676 18.4499 14.4341 18.447C14.6007 18.444 14.7619 18.5059 14.8837 18.6194L16.9992 20.734L21.6877 16.0454C21.7471 15.984 21.818 15.9351 21.8965 15.9015C21.9749 15.8678 22.0593 15.8501 22.1446 15.8494C22.23 15.8487 22.3146 15.865 22.3936 15.8974C22.4726 15.9297 22.5444 15.9775 22.6047 16.0379C22.665 16.0983 22.7127 16.1701 22.745 16.2491C22.7773 16.3281 22.7935 16.4128 22.7927 16.4981C22.792 16.5835 22.7742 16.6678 22.7405 16.7462C22.7067 16.8247 22.6577 16.8956 22.5963 16.9548Z" fill="#6F6F6F"/>
</svg>
