<svg width="36" height="36" viewBox="0 0 36 36" fill="none" xmlns="http://www.w3.org/2000/svg">
<rect width="36" height="36" fill="white"/>
<rect x="0.5" y="0.5" width="35" height="35" rx="7.5" fill="white"/>
<rect x="0.5" y="0.5" width="35" height="35" rx="7.5" stroke="#F5F5F5"/>
<g clip-path="url(#clip0_2135_26917)">
<path d="M27.6732 24.5536C27.0303 23.9805 26.4675 23.3235 25.9999 22.6003C25.4888 21.6022 25.1828 20.5118 25.0999 19.3936V16.1003C25.1043 14.344 24.4672 12.6466 23.3084 11.3269C22.1495 10.0072 20.5486 9.15617 18.8065 8.93359V8.07359C18.8065 7.83755 18.7128 7.61118 18.5459 7.44427C18.379 7.27736 18.1526 7.18359 17.9165 7.18359C17.6805 7.18359 17.4541 7.27736 17.2872 7.44427C17.1203 7.61118 17.0265 7.83755 17.0265 8.07359V8.94693C15.3 9.18555 13.7185 10.0418 12.5749 11.357C11.4313 12.6722 10.803 14.3574 10.8065 16.1003V19.3936C10.7236 20.5118 10.4176 21.6022 9.90654 22.6003C9.44712 23.3218 8.89333 23.9788 8.25987 24.5536C8.18876 24.6161 8.13176 24.693 8.09268 24.7792C8.0536 24.8654 8.03332 24.9589 8.0332 25.0536V25.9603C8.0332 26.1371 8.10344 26.3066 8.22847 26.4317C8.35349 26.5567 8.52306 26.6269 8.69987 26.6269H27.2332C27.41 26.6269 27.5796 26.5567 27.7046 26.4317C27.8296 26.3066 27.8999 26.1371 27.8999 25.9603V25.0536C27.8997 24.9589 27.8795 24.8654 27.8404 24.7792C27.8013 24.693 27.7443 24.6161 27.6732 24.5536ZM9.41987 25.2936C10.04 24.6943 10.5861 24.0228 11.0465 23.2936C11.6904 22.0882 12.0657 20.7578 12.1465 19.3936V16.1003C12.1201 15.319 12.2512 14.5403 12.5319 13.8107C12.8126 13.0811 13.2373 12.4155 13.7807 11.8534C14.3241 11.2913 14.975 10.8444 15.6947 10.5391C16.4144 10.2338 17.1881 10.0765 17.9699 10.0765C18.7516 10.0765 19.5254 10.2338 20.2451 10.5391C20.9648 10.8444 21.6157 11.2913 22.159 11.8534C22.7024 12.4155 23.1271 13.0811 23.4078 13.8107C23.6886 14.5403 23.8196 15.319 23.7932 16.1003V19.3936C23.8741 20.7578 24.2493 22.0882 24.8932 23.2936C25.3536 24.0228 25.8997 24.6943 26.5199 25.2936H9.41987Z" fill="#FF7A2C"/>
<path d="M17.9996 28.854C18.4195 28.8443 18.8225 28.6864 19.1373 28.4083C19.4521 28.1301 19.6583 27.7496 19.7196 27.334H16.2129C16.2759 27.7609 16.4918 28.1503 16.8204 28.4299C17.1491 28.7095 17.5681 28.8602 17.9996 28.854Z" fill="#FF7A2C"/>
</g>
<defs>
<clipPath id="clip0_2135_26917">
<rect width="24" height="24" fill="white" transform="translate(6 6)"/>
</clipPath>
</defs>
</svg>
