<svg width="20" height="20" viewBox="0 0 20 20" fill="none" xmlns="http://www.w3.org/2000/svg">
<path d="M8.62015 2.28346C8.79383 2.0895 9.00645 1.93434 9.24414 1.82812C9.48183 1.7219 9.73926 1.66699 9.99961 1.66699C10.26 1.66699 10.5174 1.7219 10.7551 1.82812C10.9928 1.93434 11.2054 2.0895 11.3791 2.28346L12.0271 3.00744C12.2123 3.21436 12.4417 3.37696 12.6983 3.48321C12.9549 3.58946 13.2321 3.63664 13.5093 3.62125L14.4814 3.56756C14.7415 3.55322 15.0016 3.59389 15.2448 3.68691C15.488 3.77993 15.7089 3.92321 15.893 4.10738C16.077 4.29156 16.2202 4.5125 16.3131 4.75576C16.406 4.99903 16.4466 5.25916 16.4321 5.51916L16.3784 6.49033C16.3632 6.76745 16.4104 7.04446 16.5167 7.30086C16.6229 7.55727 16.7854 7.7865 16.9922 7.97162L17.7162 8.61969C17.9103 8.79336 18.0656 9.00604 18.1719 9.24382C18.2782 9.4816 18.3332 9.73914 18.3332 9.9996C18.3332 10.2601 18.2782 10.5176 18.1719 10.7554C18.0656 10.9932 17.9103 11.2058 17.7162 11.3795L16.9922 12.0276C16.7853 12.2128 16.6227 12.4422 16.5165 12.6988C16.4102 12.9553 16.363 13.2325 16.3784 13.5098L16.4321 14.4819C16.4465 14.7419 16.4058 15.002 16.3128 15.2452C16.2197 15.4885 16.0765 15.7093 15.8923 15.8934C15.7081 16.0775 15.4872 16.2207 15.2439 16.3136C15.0006 16.4065 14.7405 16.447 14.4805 16.4326L13.5093 16.3789C13.2322 16.3636 12.9552 16.4109 12.6988 16.5171C12.4424 16.6234 12.2132 16.7859 12.0281 16.9927L11.38 17.7167C11.2063 17.9108 10.9936 18.0661 10.7559 18.1724C10.5181 18.2787 10.2605 18.3337 10.0001 18.3337C9.7396 18.3337 9.48207 18.2787 9.24429 18.1724C9.00651 18.0661 8.79383 17.9108 8.62015 17.7167L7.97209 16.9927C7.78687 16.7858 7.55748 16.6232 7.30091 16.5169C7.04434 16.4107 6.76715 16.3635 6.48987 16.3789L5.51777 16.4326C5.25777 16.4469 4.99766 16.4062 4.75443 16.3132C4.51121 16.2202 4.29035 16.0769 4.10626 15.8927C3.92217 15.7086 3.779 15.4876 3.68609 15.2444C3.59319 15.0011 3.55264 14.741 3.5671 14.481L3.62079 13.5098C3.63604 13.2327 3.58879 12.9557 3.48255 12.6993C3.3763 12.4429 3.21377 12.2136 3.00698 12.0285L2.283 11.3804C2.08889 11.2068 1.9336 10.9941 1.82729 10.7563C1.72097 10.5185 1.66602 10.261 1.66602 10.0005C1.66602 9.74006 1.72097 9.48253 1.82729 9.24475C1.9336 9.00696 2.08889 8.79429 2.283 8.62061L3.00698 7.97255C3.2139 7.78733 3.3765 7.55794 3.48275 7.30137C3.589 7.04479 3.63618 6.76761 3.62079 6.49033L3.5671 5.51823C3.5529 5.2583 3.59367 4.99829 3.68675 4.75518C3.77983 4.51207 3.92313 4.29132 4.10729 4.10733C4.29145 3.92335 4.51234 3.78026 4.75554 3.68741C4.99874 3.59456 5.25878 3.55404 5.5187 3.56848L6.48987 3.62218C6.767 3.63742 7.044 3.59018 7.3004 3.48393C7.55681 3.37768 7.78604 3.21516 7.97116 3.00837L8.62015 2.28346Z" fill="url(#paint0_linear_2135_29378)" stroke="url(#paint1_linear_2135_29378)" stroke-width="1.04167"/>
<path d="M5.13796 11.9035C4.89388 11.9035 4.75 11.7545 4.75 11.5001V8.55061C4.75 8.29626 4.89388 8.14724 5.13796 8.14724H6.25815C7.01865 8.14724 7.54278 8.65338 7.54278 9.41645C7.54278 10.177 7.00067 10.6857 6.21962 10.6857H5.52592V11.5001C5.52592 11.7545 5.38204 11.9035 5.13796 11.9035ZM5.52592 10.0793H6.05004C6.49453 10.0793 6.75402 9.84295 6.75402 9.41902C6.75402 8.99766 6.4971 8.76129 6.05261 8.76129H5.52592V10.0793Z" fill="white"/>
<path d="M8.60111 11.9086C8.3596 11.9086 8.21315 11.7596 8.21315 11.5053V8.55061C8.21315 8.29626 8.35703 8.14724 8.60111 8.14724H9.73159C10.5846 8.14724 11.0727 8.59686 11.0727 9.3291C11.0727 9.79156 10.8441 10.1872 10.4356 10.3619L10.97 11.2869C11.0342 11.3974 11.0522 11.4642 11.0522 11.5541C11.0522 11.7596 10.8878 11.9086 10.6617 11.9086C10.4767 11.9086 10.3919 11.8418 10.266 11.6157L9.64937 10.4981H8.98907V11.5053C8.98907 11.7596 8.84519 11.9086 8.60111 11.9086ZM8.98907 9.93544H9.65708C10.0476 9.93544 10.2763 9.71192 10.2763 9.34451C10.2763 8.98482 10.0348 8.75358 9.64937 8.75358H8.98907V9.93544Z" fill="white"/>
<path d="M13.4671 11.9163C12.3674 11.9163 11.6789 11.1815 11.6789 10.0022C11.6789 8.82038 12.3674 8.08301 13.4671 8.08301C14.5642 8.08301 15.2553 8.82038 15.2553 10.0022C15.2553 11.1815 14.5642 11.9163 13.4671 11.9163ZM13.4671 11.2689C14.0734 11.2689 14.4614 10.7782 14.4614 10.0022C14.4614 9.22376 14.0734 8.73046 13.4671 8.73046C12.8607 8.73046 12.4702 9.22376 12.4702 10.0022C12.4702 10.7782 12.8582 11.2689 13.4671 11.2689Z" fill="white"/>
<defs>
<linearGradient id="paint0_linear_2135_29378" x1="9.01643" y1="-4.03476" x2="16.0476" y2="31.1472" gradientUnits="userSpaceOnUse">
<stop stop-color="#FF9B63"/>
<stop offset="1" stop-color="#FF621F"/>
</linearGradient>
<linearGradient id="paint1_linear_2135_29378" x1="9.01643" y1="-4.03476" x2="16.0476" y2="31.1472" gradientUnits="userSpaceOnUse">
<stop stop-color="#FF9B63"/>
<stop offset="1" stop-color="#FF621F"/>
</linearGradient>
</defs>
</svg>
