<svg width="24" height="24" viewBox="0 0 24 24" fill="none" xmlns="http://www.w3.org/2000/svg">
<path d="M14.0794 9.40077C13.955 9.05114 13.7257 8.74847 13.4227 8.53419C13.1198 8.31991 12.758 8.2045 12.3869 8.20374H10.9976C10.6012 8.20167 10.2181 8.34664 9.92247 8.61063C9.62679 8.87462 9.4395 9.23886 9.39682 9.63294C9.35414 10.027 9.4591 10.4229 9.6914 10.7441C9.9237 11.0652 10.2668 11.2889 10.6545 11.3717L12.77 11.8333C13.2026 11.928 13.5849 12.1792 13.8436 12.5387C14.1022 12.8981 14.2188 13.3405 14.1711 13.7807C14.1234 14.221 13.9147 14.6281 13.5851 14.9238C13.2555 15.2195 12.8282 15.383 12.3854 15.3828H11.1899C10.4083 15.3828 9.74362 14.8843 9.49744 14.1873M11.7884 8.20374V6.4082M11.7884 17.1784V15.3844M4.30469 22.0034V18.1569H8.15117" stroke="#FF7A2C" stroke-linecap="round" stroke-linejoin="round"/>
<path d="M21.8285 10.1644C22.237 12.3419 21.9109 14.5933 20.9014 16.5653C19.8919 18.5374 18.2562 20.1184 16.251 21.0603C14.2457 22.0022 11.9845 22.2516 9.82222 21.7694C7.65992 21.2871 5.71895 20.1006 4.30395 18.3959M2.17146 13.8447C1.763 11.6673 2.08911 9.41587 3.0986 7.44382C4.10809 5.47176 5.74382 3.89072 7.74904 2.94884C9.75427 2.00697 12.0155 1.75758 14.1778 2.23981C16.3401 2.72204 18.281 3.90861 19.696 5.61326" stroke="#FF7A2C" stroke-linecap="round" stroke-linejoin="round"/>
<path d="M19.6961 2.00781V5.8543H15.8496" stroke="#FF7A2C" stroke-linecap="round" stroke-linejoin="round"/>
</svg>
