<svg width="129" height="117" viewBox="0 0 129 117" fill="none" xmlns="http://www.w3.org/2000/svg">
<path d="M105.031 0H22.969C16.8829 0.0183916 11.0515 2.41925 6.74798 6.67831C2.44449 10.9374 0.0185834 16.7086 0 22.7318V93.2781C0.0185962 99.3004 2.44482 105.071 6.7486 109.328C11.0524 113.586 16.8838 115.984 22.969 116H105.031C111.116 115.984 116.948 113.586 121.251 109.328C125.555 105.071 127.981 99.3004 128 93.2781V22.7318C127.981 16.7086 125.556 10.9374 121.252 6.67831C116.949 2.41925 111.117 0.0183916 105.031 0Z" fill="url(#paint0_linear_2277_2350)"/>
<path d="M128.31 29.2305V67.2305C128.31 67.2305 101.359 82.8005 83.9695 114.49C83.9695 115.17 83.8895 115.82 83.8095 116.49H42.4795C41.6295 113.43 40.0895 109.9 37.3895 107.86C37.3895 107.86 26.8095 98.7305 20.7495 106.11L20.8295 108.49L18.5695 107.94C18.1402 107.022 17.9336 106.016 17.9666 105.003C17.9996 103.99 18.2713 102.999 18.7595 102.11C19.3795 100.99 20.0395 99.9805 20.4395 99.9805L19.2695 99.0705L18.6295 100.24C18.6295 100.24 14.7995 99.1505 15.0895 96.9905C15.0895 96.9905 15.0895 93.1805 18.5895 93.6205C18.5895 93.6205 23.2495 95.0205 23.4795 93.7705C23.4795 93.7705 24.1795 91.4405 17.6695 88.9105C17.6695 88.9105 11.4095 86.1405 7.07952 78.0105C6.92952 77.7205 7.07947 79.8105 6.77947 80.4205C6.47947 81.0305 5.39952 80.4205 5.32952 80.6705L5.13951 78.2905C5.13951 78.2905 4.34947 72.5805 6.52947 70.8105C6.52947 70.8105 18.8195 62.7505 26.5295 65.6805C26.5295 65.6805 29.1495 66.1005 30.2095 65.3105C30.8479 64.8412 31.6459 64.6435 32.4295 64.7605C32.4295 64.7605 34.6395 66.1905 33.5095 68.3905C37.0003 70.7898 41.2054 71.9257 45.4295 71.6105C45.4295 71.6105 65.3195 69.8205 76.9695 86.6105C76.9695 86.6105 77.6495 88.1505 78.5795 90.6105C87.0395 74.5305 103.92 44.7205 116.9 36.2305C120.329 33.337 124.176 30.9772 128.31 29.2305Z" fill="white"/>
<defs>
<linearGradient id="paint0_linear_2277_2350" x1="56.4494" y1="-39.6842" x2="101.107" y2="206.874" gradientUnits="userSpaceOnUse">
<stop stop-color="#FF9B63"/>
<stop offset="1" stop-color="#FF621F"/>
</linearGradient>
</defs>
</svg>
