<svg width="20" height="20" viewBox="0 0 20 20" fill="none" xmlns="http://www.w3.org/2000/svg">
<path d="M4.55325 2.7793C3.94098 2.94328 3.38267 3.26558 2.93447 3.71379C2.48627 4.162 2.16398 4.72031 2 5.3326M15.4468 2.7793C16.059 2.94328 16.6173 3.26558 17.0655 3.71379C17.5137 4.162 17.836 4.72031 18 5.3326" stroke="url(#paint0_linear_2277_4545)" stroke-width="2.16609" stroke-linecap="round"/>
<path fill-rule="evenodd" clip-rule="evenodd" d="M9.99951 17.9993C11.9144 17.9993 13.7509 17.2386 15.105 15.8845C16.459 14.5304 17.2197 12.6939 17.2197 10.779C17.2197 8.86399 16.459 7.02747 15.105 5.67339C13.7509 4.31931 11.9144 3.55859 9.99951 3.55859C8.08459 3.55859 6.2481 4.31931 4.89405 5.67339C3.54 7.02747 2.7793 8.86399 2.7793 10.779C2.7793 12.6939 3.54 14.5304 4.89405 15.8845C6.2481 17.2386 8.08459 17.9993 9.99951 17.9993ZM10.902 7.16877C10.902 6.9294 10.807 6.69984 10.6377 6.53058C10.4684 6.36132 10.2389 6.26623 9.99951 6.26623C9.76015 6.26623 9.53059 6.36132 9.36133 6.53058C9.19207 6.69984 9.09699 6.9294 9.09699 7.16877V10.5533C9.09699 11.1761 9.6024 11.6815 10.2251 11.6815H12.7071C12.9465 11.6815 13.176 11.5864 13.3453 11.4171C13.5145 11.2479 13.6096 11.0183 13.6096 10.779C13.6096 10.5396 13.5145 10.31 13.3453 10.1408C13.176 9.9715 12.9465 9.87641 12.7071 9.87641H10.902V7.16877Z" fill="url(#paint1_linear_2277_4545)"/>
<defs>
<linearGradient id="paint0_linear_2277_4545" x1="9.05618" y1="1.9058" x2="9.23477" y2="7.50518" gradientUnits="userSpaceOnUse">
<stop stop-color="#FF9B63"/>
<stop offset="1" stop-color="#FF621F"/>
</linearGradient>
<linearGradient id="paint1_linear_2277_4545" x1="9.14769" y1="-1.38165" x2="15.2401" y2="29.1014" gradientUnits="userSpaceOnUse">
<stop stop-color="#FF9B63"/>
<stop offset="1" stop-color="#FF621F"/>
</linearGradient>
</defs>
</svg>
