<svg width="24" height="24" viewBox="0 0 24 24" fill="none" xmlns="http://www.w3.org/2000/svg">
<path d="M12.0008 10.2V3M12.0008 3L14.7008 5.7M12.0008 3L9.30078 5.7" stroke="white" stroke-width="1.25" stroke-linecap="round" stroke-linejoin="round"/>
<path d="M3 12.9004H5.844C6.6585 12.9004 7.0662 12.9004 7.4244 13.0651C7.7826 13.2298 8.0472 13.5394 8.5773 14.1577L9.1227 14.7931C9.6528 15.4114 9.9174 15.721 10.2756 15.8857C10.6338 16.0504 11.0406 16.0504 11.856 16.0504H12.144C12.9585 16.0504 13.3662 16.0504 13.7244 15.8857C14.0826 15.721 14.3472 15.4114 14.8773 14.7931L15.4227 14.1577C15.9528 13.5394 16.2174 13.2298 16.5756 13.0651C16.9338 12.9004 17.3406 12.9004 18.156 12.9004H21" stroke="white" stroke-width="1.25" stroke-linecap="round"/>
<path d="M21 12C21 16.2426 21 18.3639 19.6815 19.6824C18.3648 21 16.2426 21 12 21C7.7574 21 5.6361 21 4.3176 19.6824C3 18.363 3 16.2426 3 12C3 7.75736 3 5.63696 4.3176 4.31846C5.0529 3.58316 6.0366 3.25826 7.5 3.11426M16.5 3.11426C17.9625 3.25826 18.948 3.58316 19.6815 4.31846C20.5581 5.19416 20.8515 6.42626 20.9505 8.39996" stroke="white" stroke-width="1.25" stroke-linecap="round"/>
</svg>
